<svg width="165" height="60" viewBox="0 0 165 60" fill="none" xmlns="http://www.w3.org/2000/svg">
<g clip-path="url(#clip0_3000_38)">
<path d="M30.698 27.0936L28.2098 30.7112C28.1603 30.7822 28.0757 30.8371 27.9892 30.8401C27.9027 30.8431 27.8324 30.8109 27.7948 30.7257C26.8894 29.0958 25.0687 27.5325 22.9978 27.726C22.5147 27.7774 22.0372 27.9845 21.7583 28.4269C21.5288 28.7984 21.526 29.2139 21.6431 29.5906C21.818 30.1383 22.2476 30.5387 22.7075 30.8168C23.2383 31.1444 23.8193 31.4184 24.3996 31.675C25.0503 31.9638 25.7011 32.2527 26.3518 32.5415C28.0058 33.2972 30.3647 34.409 30.9332 36.3103C31.0115 36.5672 31.0551 36.8252 31.0648 37.1018C31.1119 38.4502 30.4958 39.6486 29.5277 40.6862C27.7252 42.6184 25.1475 43.1757 22.8004 43.3961C20.3144 43.6041 17.8656 42.8935 15.8531 41.7868C15.8 41.7541 15.7636 41.7034 15.7439 41.6349C15.7242 41.5663 15.7563 41.496 15.7891 41.4429L18.229 37.9308C18.2785 37.8599 18.3464 37.8229 18.415 37.8032C18.5015 37.8002 18.554 37.8156 18.6077 37.8657C19.2735 38.5867 20.1092 39.2152 20.9574 39.7048C21.8408 40.2104 22.8959 40.6755 23.9408 40.8467C24.6373 40.9608 25.5909 40.9968 26.2311 40.4898C26.3998 40.3628 26.5327 40.2024 26.6472 40.008C26.7777 39.7784 26.7674 39.4846 26.7077 39.2616C26.624 38.8492 26.3692 38.4946 26.0829 38.2277C23.8922 35.985 18.6169 35.65 17.6381 32.4131C17.4804 31.8647 17.4426 31.2776 17.5431 30.6856C17.7424 29.4498 18.4826 28.3336 19.4757 27.5201C20.9571 26.3088 22.8759 25.7226 24.6541 25.5739C26.9332 25.3905 28.6794 25.8141 30.6334 26.7324C30.7038 26.7646 30.7402 26.8152 30.7426 26.8844C30.7623 26.9529 30.7474 27.0226 30.698 27.0936Z" fill="#F6F2F0"/>
<path d="M36.2567 37.5264C36.2485 37.7863 36.2624 38.1839 36.526 38.2958C36.8779 38.4566 37.5737 38.0515 37.8956 37.8499C38.2342 37.6304 38.6235 37.3745 38.9251 37.087L39.0849 32.7373L38.4225 31.6181C38.3861 31.5675 38.3837 31.4983 38.4159 31.428C38.448 31.3576 38.4814 31.3218 38.5494 31.2849L39.2833 30.9823L42.8399 29.6985C42.9085 29.6788 42.9604 29.677 43.0141 29.727C43.0672 29.7598 43.0869 29.8283 43.0887 29.8802L42.7959 38.3538L43.3302 39.7716C43.3499 39.8402 43.3523 39.9093 43.3023 39.963C43.2528 40.034 43.2021 40.0703 43.1329 40.0728L38.9731 40.443C38.852 40.4472 38.7625 40.3638 38.7756 40.2422L38.8067 39.1508C38.3024 39.5838 37.7975 39.9995 37.2556 40.3472C36.595 40.7684 35.8741 40.9493 35.1496 41.0265C33.3374 41.1937 32.2445 40.1415 32.3182 38.287L32.4897 33.2791L31.8273 32.16C31.7909 32.1093 31.7884 32.0402 31.8206 31.9698C31.8528 31.8995 31.8862 31.8637 31.9541 31.8267L32.6881 31.5241L36.2447 30.2403C36.3133 30.2206 36.3651 30.2188 36.4188 30.2689C36.4719 30.3016 36.4916 30.3702 36.4934 30.422L36.3827 33.697L36.2905 37.006L36.2567 37.5264Z" fill="#F6F2F0"/>
<path d="M51.4978 37.6345L51.6869 32.1414C51.6957 31.8988 51.6788 31.4148 51.4158 31.3201C51.1003 31.21 50.4904 31.5947 50.2203 31.7945C49.899 32.0134 49.5968 32.2836 49.3112 32.5359C49.2517 34.3033 49.175 36.0714 49.0982 37.8394L49.6325 39.2573C49.6522 39.3258 49.6546 39.395 49.6046 39.4486C49.5551 39.5196 49.5044 39.556 49.4352 39.5584L44.7745 39.9635C44.7053 39.9659 44.6355 39.951 44.5985 39.8831C44.5615 39.8151 44.5597 39.7633 44.5919 39.6929L45.2317 38.1821L45.4485 31.9958L44.7594 31.1026C44.723 31.0519 44.7033 30.9834 44.7354 30.913C44.7503 30.8433 44.8177 30.789 44.869 30.7699L45.6029 30.4673L49.1595 29.1835C49.2281 29.1638 49.28 29.162 49.3337 29.2121C49.3868 29.2448 49.4065 29.3134 49.4083 29.3652L49.3771 30.4567C49.7461 30.115 50.1151 29.7732 50.5199 29.4649C51.2281 28.9209 52.0497 28.6499 52.8959 28.5858C54.1219 28.491 55.1091 28.9931 55.4769 30.1052C55.9305 29.7086 56.383 29.2774 56.8718 28.8969C57.58 28.353 58.4017 28.082 59.2478 28.0178C59.8352 27.98 60.4274 28.0804 60.9046 28.358C61.7182 28.8488 62.0096 29.7559 61.9754 30.761L61.7574 36.9127L62.2153 38.1256C62.235 38.1941 62.2374 38.2633 62.1874 38.3169C62.1379 38.3879 62.0872 38.4243 62.018 38.4267L57.3918 38.8305C57.3227 38.833 57.2529 38.8181 57.2159 38.7502C57.1795 38.6995 57.1771 38.6304 57.2093 38.56L57.8491 37.0492L58.0382 31.5561C58.047 31.3135 58.0301 30.8295 57.7671 30.7349C57.4516 30.6247 56.8417 31.0095 56.5716 31.2093C56.2336 31.4461 55.9141 31.7169 55.6298 32.0037L55.4401 37.4795L55.898 38.6923C55.9177 38.7609 55.9201 38.83 55.87 38.8837C55.8206 38.9546 55.7699 38.991 55.7007 38.9934L51.0745 39.3973C51.0053 39.3997 50.9356 39.3848 50.8986 39.3169C50.8622 39.2663 50.8597 39.1971 50.8919 39.1268L51.4978 37.6345Z" fill="#F6F2F0"/>
<path d="M70.3813 35.9714L70.5704 30.4783C70.5792 30.2357 70.5623 29.7517 70.2993 29.657C69.9838 29.5469 69.3739 29.9316 69.1039 30.1314C68.7825 30.3504 68.4803 30.6205 68.1948 30.8728C68.1353 32.6402 68.0585 34.4083 67.9817 36.1763L68.5161 37.5942C68.5358 37.6627 68.5382 37.7319 68.4881 37.7855C68.4386 37.8565 68.388 37.8929 68.3188 37.8953L63.658 38.3004C63.5888 38.3028 63.5191 38.2879 63.4821 38.22C63.4457 38.1693 63.4432 38.1002 63.4754 38.0298L64.1152 36.519L64.3321 30.3327L63.6429 29.4395C63.6065 29.3888 63.5868 29.3203 63.619 29.2499C63.6512 29.1796 63.7012 29.1259 63.7525 29.1068L64.4865 28.8042L68.0431 27.5204C68.1116 27.5007 68.1635 27.4989 68.2172 27.549C68.2703 27.5817 68.29 27.6503 68.2918 27.7021L68.2607 28.7936C68.6297 28.4519 68.9987 28.1101 69.4034 27.8018C70.1117 27.2578 70.9333 26.9868 71.7795 26.9227C73.0055 26.8279 73.9926 27.33 74.3604 28.4421C74.8141 28.0455 75.2665 27.6143 75.7554 27.2338C76.4636 26.6899 77.2852 26.4189 78.1314 26.3547C78.7188 26.3169 79.311 26.4174 79.7882 26.6949C80.6018 27.1857 80.8932 28.0929 80.859 29.0979L80.6595 35.2836L81.1174 36.4965C81.1371 36.565 81.1395 36.6341 81.0894 36.6878C81.0399 36.7588 80.9893 36.7952 80.9201 36.7976L76.2939 37.2014C76.2247 37.2038 76.1549 37.189 76.1179 37.121C76.0815 37.0704 76.0791 37.0012 76.1113 36.9309L76.7511 35.4201L76.9402 29.927C76.9491 29.6844 76.9322 29.2004 76.6691 29.1057C76.3536 28.9956 75.7437 29.3804 75.4737 29.5802C75.1357 29.817 74.8161 30.0877 74.5318 30.3746L74.3248 35.851L74.7827 37.0638C74.8024 37.1324 74.8049 37.2015 74.7548 37.2552C74.7053 37.3261 74.6546 37.3625 74.5855 37.3649L69.9593 37.7688C69.8901 37.7712 69.8203 37.7563 69.7833 37.6884C69.7469 37.6377 69.7445 37.5686 69.7767 37.4982L70.3813 35.9714Z" fill="#F6F2F0"/>
<path d="M86.5243 32.6556C87.0883 33.9339 88.5603 34.4364 89.8895 34.3207C90.131 34.295 90.3552 34.2698 90.5955 34.2095C91.3856 34.0262 92.1517 33.6533 92.7901 33.0944C92.8742 33.0223 92.9779 33.0186 93.0495 33.0854C93.1211 33.1521 93.1247 33.2558 93.0765 33.3614C92.0789 35.0404 90.3446 35.949 88.61 36.3558C85.3812 37.1089 82.5641 35.7707 82.1816 32.2534C81.7996 28.7533 84.1869 26.2123 87.4157 25.4591C90.4043 24.7663 92.2414 25.8098 92.7633 28.855C92.7842 28.9582 92.7353 29.0464 92.6507 29.1013L91.9716 29.4885L89.817 30.7579L86.5243 32.6556ZM89.1295 29.4146C89.1174 29.0689 89.0361 28.7256 88.9215 28.4181C88.5788 27.53 87.7853 26.6231 86.7121 27.1279C86.6609 27.147 86.6275 27.1828 86.5762 27.2019C86.0683 27.5312 85.8509 28.2484 85.7838 28.8045C85.6738 29.6218 85.7731 30.4837 85.9726 31.2383L89.1295 29.4146Z" fill="#F6F2F0"/>
<path d="M94.375 33.87L94.5811 27.8744L93.9187 26.7552C93.8823 26.7046 93.8799 26.6354 93.9121 26.5651C93.9443 26.4947 93.9777 26.459 94.0456 26.422L94.7796 26.1194L98.3362 24.8356C98.4047 24.8159 98.4566 24.8141 98.5103 24.8642C98.5634 24.8969 98.5831 24.9655 98.5849 25.0173L98.559 25.7624C99.0442 25.2782 99.6702 24.8583 100.25 24.613C100.881 24.3314 101.552 24.2041 102.18 24.3379C102.267 24.3522 102.322 24.4368 102.325 24.5233L102.211 27.6945C102.214 27.7809 102.147 27.8698 102.079 27.9068C101.994 27.9444 101.907 27.9301 101.853 27.8801C101.351 27.3611 100.601 27.2315 99.8466 27.4309C99.3493 27.5694 98.635 27.9405 98.4814 28.4997C98.4659 28.5522 98.4505 28.6047 98.4529 28.6738L98.2921 33.4909L98.8264 34.9088C98.8461 34.9773 98.8486 35.0464 98.7985 35.1001C98.749 35.1711 98.6984 35.2075 98.6292 35.2099L93.9165 35.6167C93.8474 35.6192 93.777 35.587 93.7406 35.5363C93.7042 35.4857 93.7018 35.4166 93.7339 35.3462L94.375 33.87Z" fill="#F6F2F0"/>
<path d="M103.836 19.7108C103.817 19.6423 103.814 19.5731 103.864 19.5022C103.913 19.4312 103.981 19.3942 104.05 19.3918C104.257 19.3673 104.465 19.36 104.689 19.3349L111.525 18.7327C113.32 18.5835 115.131 18.8664 116.451 19.9799C117.503 20.8605 118.085 22.1555 118.084 23.6094C118.071 24.7175 117.712 25.8377 117.07 26.812C116.379 27.84 115.338 28.7591 113.99 29.3426C113.99 29.3426 114.938 30.6942 115.662 31.6035C116.748 32.9674 117.837 33.8813 118.264 34.2126C118.353 34.2787 118.358 34.4343 118.256 34.4898L114.547 36.8693C114.395 36.9784 114.186 36.9338 114.077 36.7818C113.675 36.1901 112.673 34.754 111.779 33.4525C110.849 32.1004 109.57 30.1893 109.57 30.1893L108.275 30.3037L108.198 32.5564L108.753 34.0601C108.772 34.1286 108.775 34.1978 108.725 34.2687C108.676 34.3397 108.608 34.3767 108.539 34.3791L103.533 34.8308C103.464 34.8332 103.394 34.8011 103.357 34.7504C103.32 34.6825 103.318 34.6133 103.35 34.543L104.021 32.9446L104.426 21.2306L103.836 19.7108ZM108.342 27.7399L110.188 27.5716C114.832 27.1671 115.049 20.9808 110.405 21.3852L108.558 21.5536L108.342 27.7399Z" fill="#F6F2F0"/>
<path d="M130.176 32.2218C130.196 32.2904 130.199 32.3595 130.148 32.4132C130.099 32.4841 130.048 32.5205 129.979 32.5229L125.854 32.892C125.733 32.8962 125.643 32.8128 125.656 32.6912L125.686 32.0498C124.643 32.917 123.446 33.3568 122.151 33.4713C120.736 33.59 119.301 33.1727 118.77 31.824C118.238 30.4753 118.84 28.8793 119.874 27.7528C121.44 26.002 123.805 25.279 125.928 25.101C125.915 24.7207 125.831 24.3083 125.496 24.1296C124.154 23.3803 121.954 24.8418 120.774 25.7656C120.724 25.802 120.655 25.8217 120.603 25.8062C120.533 25.7914 120.497 25.758 120.478 25.7068L119.634 23.867C119.615 23.8157 119.614 23.7639 119.628 23.6941C119.644 23.6417 119.694 23.588 119.745 23.5689C122.823 21.973 129.992 20.9957 129.831 25.8128L129.642 30.804L130.176 32.2218ZM125.835 26.887C124.991 27.0376 124.228 27.4969 123.647 28.1922C123.182 28.7623 122.794 29.5547 122.818 30.2461C122.828 30.54 122.907 30.8142 123.155 30.9613C123.597 31.2401 124.281 30.9912 124.703 30.6822C125.379 30.1913 125.75 29.4168 125.774 28.6198L125.835 26.887Z" fill="#F6F2F0"/>
<path d="M136.494 31.672C136.513 31.7406 136.516 31.8097 136.466 31.8634C136.416 31.9344 136.366 31.9707 136.296 31.9732L131.584 32.38C131.515 32.3825 131.444 32.3503 131.408 32.2996C131.371 32.249 131.369 32.1798 131.401 32.1095L132.041 30.5987L132.247 24.6031L131.585 23.484C131.548 23.4333 131.546 23.3642 131.578 23.2938C131.61 23.2235 131.644 23.1877 131.712 23.1507L132.446 22.8481L136.002 21.5643C136.071 21.5446 136.123 21.5428 136.176 21.5929C136.229 21.6256 136.249 21.6942 136.251 21.746L135.958 30.2196L136.494 31.672ZM136.14 18.0807C136.675 19.014 136.043 20.2476 134.73 20.8472C133.418 21.4469 131.902 21.171 131.367 20.2377C130.833 19.3045 131.465 18.0709 132.777 17.4712C134.09 16.8716 135.606 17.1475 136.14 18.0807Z" fill="#F6F2F0"/>
<path d="M144.919 29.474L145.108 23.981C145.116 23.7211 145.102 23.3235 144.839 23.2115C144.487 23.0508 143.791 23.4558 143.469 23.6574C143.13 23.877 142.793 24.131 142.473 24.4018L142.294 29.6868L142.829 31.1047C142.848 31.1732 142.851 31.2424 142.801 31.2961C142.751 31.367 142.701 31.4034 142.631 31.4058L137.919 31.8127C137.85 31.8151 137.779 31.783 137.743 31.7323C137.706 31.6817 137.704 31.6125 137.736 31.5422L138.328 30.1369L138.545 23.9678L137.92 22.9166C137.883 22.866 137.881 22.7968 137.913 22.7265C137.945 22.6561 137.996 22.6197 138.064 22.5827L142.355 21.0137C142.424 20.994 142.493 20.9916 142.529 21.0249C142.582 21.0577 142.601 21.1262 142.603 21.1781L142.572 22.2696C143.076 21.8366 143.581 21.4209 144.123 21.0731C144.801 20.6513 145.539 20.4525 146.281 20.392C148.077 20.2427 149.135 21.2962 149.078 23.1327L148.87 29.0765L149.404 30.4943C149.424 30.5629 149.426 30.632 149.376 30.6857C149.327 30.7566 149.276 30.793 149.207 30.7954L144.494 31.2023C144.425 31.2047 144.355 31.1726 144.318 31.1219C144.282 31.0713 144.28 31.0021 144.312 30.9318L144.919 29.474Z" fill="#F6F2F0"/>
</g>
<path d="M148.105 7.31396L148.536 9.9304L151.152 10.3614L148.536 10.7923L148.105 13.4088L147.674 10.7923L145.057 10.3614L147.674 9.9304L148.105 7.31396Z" fill="white"/>
<path d="M154.673 12.5957L154.96 14.34L156.704 14.6273L154.96 14.9146L154.673 16.6589L154.385 14.9146L152.641 14.6273L154.385 14.34L154.673 12.5957Z" fill="#F6F2F0"/>
<defs>
<clipPath id="clip0_3000_38">
<rect width="133.95" height="22.3476" fill="white" transform="translate(15.0334 21.3062) rotate(-2)"/>
</clipPath>
</defs>
</svg>
