<?xml version="1.0" encoding="UTF-8"?>
<!-- Generated by Pixelmator Pro 2.4.7 -->
<svg width="603" height="182" viewBox="0 0 603 182" xmlns="http://www.w3.org/2000/svg" xmlns:xlink="http://www.w3.org/1999/xlink">
    <path id="path8" fill="#000000" stroke="none" d="M 374.006409 142.184036 C 339.006927 167.98143 288.277344 181.74527 244.600082 181.74527 C 183.357529 181.74527 128.223526 159.093918 86.512512 121.420311 C 83.235413 118.457787 86.171677 114.42041 90.104218 116.727478 C 135.11853 142.918121 190.776917 158.674454 248.270447 158.674454 C 287.045135 158.674454 329.699951 150.652084 368.920349 134.004395 C 374.845367 131.487564 379.800354 137.884476 374.006409 142.184036"/>
    <path id="path10" fill="#000000" stroke="none" d="M 388.556793 125.536346 C 384.099915 119.821083 358.984161 122.836021 347.710938 124.17308 C 344.27652 124.592552 343.752197 121.603828 346.845764 119.454033 C 366.849213 105.375587 399.672729 109.439201 403.500366 114.158234 C 407.328033 118.903488 402.50415 151.805634 383.706665 167.509506 C 380.822815 169.921463 378.070038 168.636856 379.354675 165.438385 C 383.575562 154.899216 393.039856 131.277847 388.556793 125.536346"/>
    <path id="path12" fill="#000000" stroke="none" d="M 348.497437 20.065979 L 348.497437 6.380783 C 348.497437 4.309662 350.070465 2.920166 351.958069 2.920166 L 413.226807 2.920166 C 415.193085 2.920166 416.766113 4.335876 416.766113 6.380783 L 416.766113 18.099716 C 416.739899 20.065979 415.088226 22.635223 412.151917 26.698837 L 380.40332 72.027771 C 392.200928 71.739403 404.653931 73.495911 415.350403 79.525787 C 417.762329 80.889061 418.417755 82.881538 418.601288 84.847816 L 418.601288 99.4506 C 418.601288 101.443077 416.399048 103.77636 414.09198 102.570396 C 395.242065 92.686638 370.204987 91.611748 349.362579 102.67527 C 347.239044 103.828812 345.01059 101.521729 345.01059 99.529251 L 345.01059 85.660538 C 345.01059 83.432114 345.036804 79.630653 347.265228 76.24868 L 384.047455 23.500397 L 352.036713 23.500397 C 350.070465 23.500397 348.497437 22.110916 348.497437 20.065979"/>
    <path id="path14" fill="#000000" stroke="none" d="M 124.998833 105.454239 L 106.358658 105.454239 C 104.575928 105.323174 103.16021 103.986107 103.029121 102.281998 L 103.029121 6.61676 C 103.029121 4.702927 104.628349 3.182343 106.620827 3.182343 L 124.002586 3.182343 C 125.811569 3.260941 127.253479 4.650482 127.384583 6.380783 L 127.384583 18.886246 L 127.725403 18.886246 C 132.26091 6.800262 140.781372 1.163635 152.264359 1.163635 C 163.930847 1.163635 171.219131 6.800262 176.462494 18.886246 C 180.971802 6.800262 191.22258 1.163635 202.207443 1.163635 C 210.020065 1.163635 218.566757 4.388306 223.783905 11.624161 C 229.682693 19.672729 228.476715 31.365448 228.476715 41.616241 L 228.450516 101.993629 C 228.450516 103.907463 226.851288 105.454239 224.85881 105.454239 L 206.244843 105.454239 C 204.383453 105.323174 202.889099 103.828812 202.889099 101.993629 L 202.889099 51.290253 C 202.889099 47.252869 203.256119 37.185593 202.364761 33.357925 C 200.975266 26.934814 196.806793 25.125824 191.406113 25.125824 C 186.896805 25.125824 182.17778 28.140778 180.263947 32.964676 C 178.350113 37.788574 178.533646 45.863342 178.533646 51.290253 L 178.533646 101.993629 C 178.533646 103.907463 176.934402 105.454239 174.941925 105.454239 L 156.327972 105.454239 C 154.440369 105.323174 152.972214 103.828812 152.972214 101.993629 L 152.945999 51.290253 C 152.945999 40.619995 154.702515 24.916107 141.463013 24.916107 C 128.066193 24.916107 128.590546 40.22673 128.590546 51.290253 L 128.590546 101.993629 C 128.590546 103.907463 126.99131 105.454239 124.998833 105.454239"/>
    <path id="path16" fill="#000000" stroke="none" d="M 469.514404 1.163635 C 497.173157 1.163635 512.142944 24.916107 512.142944 55.117905 C 512.142944 84.297249 495.600128 107.446716 469.514404 107.446716 C 442.353729 107.446716 427.567413 83.69426 427.567413 54.095451 C 427.567413 24.31311 442.537262 1.163635 469.514404 1.163635 M 469.671692 20.695206 C 455.934082 20.695206 455.068909 39.414001 455.068909 51.080521 C 455.068909 62.773232 454.885376 87.731659 469.514404 87.731659 C 483.959869 87.731659 484.64151 67.597137 484.64151 55.327629 C 484.64151 47.252869 484.30069 37.605057 481.862518 29.949738 C 479.765167 23.290665 475.59671 20.695206 469.671692 20.695206"/>
    <path id="path18" fill="#000000" stroke="none" d="M 548.007629 105.454239 L 529.446106 105.454239 C 527.584717 105.323174 526.090332 103.828812 526.090332 101.993629 L 526.064148 6.302139 C 526.221436 4.545609 527.76825 3.182343 529.655823 3.182343 L 546.932739 3.182343 C 548.558167 3.260941 549.895264 4.362106 550.262268 5.856461 L 550.262268 20.485443 L 550.603088 20.485443 C 555.820251 7.403244 563.134766 1.163635 576.007202 1.163635 C 584.370361 1.163635 592.523804 4.178574 597.767212 12.436874 C 602.643555 20.092194 602.643555 32.964676 602.643555 42.219208 L 602.643555 102.439323 C 602.433777 104.11718 600.887024 105.454239 599.051819 105.454239 L 580.359192 105.454239 C 578.65509 105.323174 577.23938 104.064758 577.055908 102.439323 L 577.055908 50.477539 C 577.055908 40.017014 578.261841 24.70636 565.389404 24.70636 C 560.853882 24.70636 556.685425 27.747528 554.614258 32.361679 C 551.992615 38.208054 551.651794 44.028198 551.651794 50.477539 L 551.651794 101.993629 C 551.62561 103.907463 550.000122 105.454239 548.007629 105.454239"/>
    <g id="use28">
        <path id="Path" fill="#000000" stroke="none" d="M 299.655457 59.758286 L 299.655457 55.720901 C 286.179993 55.720901 271.944244 58.604752 271.944244 74.492149 C 271.944244 82.540718 276.112701 87.993843 283.269897 87.993843 C 288.513275 87.993843 293.206085 84.769173 296.16861 79.525787 C 299.838959 73.076439 299.655457 67.020348 299.655457 59.758286 M 318.452911 105.19207 C 317.220734 106.293182 315.437958 106.371834 314.048492 105.637772 C 307.861328 100.499268 306.760193 98.113541 303.35202 93.210991 C 293.127441 103.645287 285.891602 106.765083 272.625885 106.765083 C 256.948181 106.765083 244.731155 97.091072 244.731155 77.716843 C 244.731155 62.589706 252.937027 52.286499 264.603516 47.252869 C 274.723206 42.795975 288.854095 42.009491 299.655457 40.777298 L 299.655457 38.365356 C 299.655457 33.934692 299.996277 28.691315 297.400787 24.863678 C 295.119934 21.42926 290.767944 20.01355 286.940277 20.01355 C 279.83551 20.01355 273.491028 23.657684 271.944244 31.208145 C 271.629639 32.886032 270.39743 34.537689 268.719574 34.616333 L 250.629944 32.676285 C 249.109375 32.33548 247.431488 31.103271 247.850967 28.769989 C 252.01944 6.852707 271.813141 0.246048 289.535736 0.246048 C 298.60675 0.246048 310.456787 2.658005 317.613983 9.52681 C 326.684998 17.994843 325.819855 29.294312 325.819855 41.590027 L 325.819855 70.638283 C 325.819855 79.3685 329.437775 83.196136 332.845978 87.915192 C 334.051941 89.593048 334.314117 91.611748 332.793518 92.870163 C 328.992096 96.042412 322.228149 101.9412 318.505341 105.244522 L 318.452911 105.192017"/>
    </g>
    <path id="path30" fill="#000000" stroke="none" d="M 55.288261 59.758286 L 55.288261 55.720901 C 41.81279 55.720901 27.577049 58.604752 27.577049 74.492149 C 27.577049 82.540718 31.74552 87.993843 38.902721 87.993843 C 44.146091 87.993843 48.838902 84.769173 51.801418 79.525787 C 55.47176 73.076439 55.288261 67.020348 55.288261 59.758286 M 74.085732 105.19207 C 72.853539 106.293182 71.070778 106.371834 69.68129 105.637772 C 63.494129 100.499268 62.393009 98.113541 58.984821 93.210991 C 48.76025 103.645287 41.524422 106.765083 28.25868 106.765083 C 12.581 106.765083 0.36397 97.091072 0.36397 77.716843 C 0.36397 62.589706 8.56984 52.286499 20.23633 47.252869 C 30.35603 42.795975 44.486912 42.009491 55.288261 40.777298 L 55.288261 38.365356 C 55.288261 33.934692 55.629082 28.691315 53.033611 24.863678 C 50.752731 21.42926 46.400749 20.01355 42.573078 20.01355 C 35.46833 20.01355 29.12384 23.657684 27.577049 31.208145 C 27.26244 32.886032 26.030251 34.537689 24.352381 34.616333 L 6.26276 32.676285 C 4.74218 32.33548 3.0643 31.103271 3.48377 28.769989 C 7.65225 6.852707 27.445959 0.246048 45.16856 0.246048 C 54.239571 0.246048 66.089584 2.658005 73.24678 9.52681 C 82.317818 17.994843 81.452652 29.294312 81.452652 41.590027 L 81.452652 70.638283 C 81.452652 79.3685 85.070595 83.196136 88.478783 87.915192 C 89.684753 89.593048 89.946922 91.611748 88.426338 92.870163 C 84.624901 96.042412 77.860962 101.9412 74.138153 105.244522 L 74.085732 105.192017"/>
</svg>
