<svg width="29" height="16" viewBox="0 0 29 16" fill="none" xmlns="http://www.w3.org/2000/svg">
<path fill-rule="evenodd" clip-rule="evenodd" d="M13.9002 14.4228C15.8121 12.853 17 10.489 17 7.73201C17 5.70159 16.3557 3.88396 15.2524 2.43963C16.7081 0.936091 18.7472 2.22587e-05 21.0013 2.22587e-05C22.0522 -0.00246504 23.0932 0.203529 24.064 0.60608C25.0348 1.00863 25.9161 1.59974 26.6569 2.3452C27.4018 3.08659 27.9922 3.96839 28.394 4.93954C28.7959 5.91069 29.001 6.9519 28.9977 8.00289C28.996 12.4124 25.4075 16 20.9982 16H20.9952C19.5595 15.9992 18.1515 15.6138 16.9236 14.8851L16.6313 14.7119L13.6035 15.5058L13.9002 14.4228Z" fill="url(#paint0_linear_3001_719)"/>
<path fill-rule="evenodd" clip-rule="evenodd" d="M16.9881 8.20624C16.996 8.04953 16.9999 7.89143 16.9999 7.73201C16.9999 6.59243 16.797 5.51989 16.4238 4.54275C16.5884 4.23895 16.7802 4.03425 16.9023 3.90396C16.9196 3.88555 16.9354 3.86862 16.9496 3.85311C17.1699 3.61242 17.4305 3.55225 17.5908 3.55225L18.0518 3.55787C18.2231 3.5648 18.4127 3.57291 18.593 3.97333V3.97346C18.7157 4.24663 18.9221 4.75524 19.087 5.1615C19.2092 5.46258 19.3085 5.70746 19.3342 5.75863C19.3943 5.87884 19.4342 6.0196 19.3542 6.17984C19.3419 6.20447 19.3305 6.22768 19.3197 6.24984C19.26 6.37187 19.216 6.46199 19.114 6.58078C19.0733 6.62823 19.0312 6.67943 18.9891 6.73057C18.9067 6.8307 18.8245 6.93064 18.7531 7.00198C18.6325 7.12181 18.5069 7.2521 18.6474 7.49266C18.7879 7.73322 19.2705 8.52044 19.9853 9.15788C20.7548 9.84396 21.4229 10.1336 21.7612 10.2803C21.8269 10.3088 21.8801 10.3318 21.9192 10.3514C22.1599 10.4716 22.3 10.4515 22.4404 10.291C22.5807 10.1305 23.0411 9.58903 23.2016 9.34834C23.3621 9.10764 23.5223 9.14754 23.7427 9.22786C23.9632 9.30818 25.1453 9.88989 25.386 10.0102C25.4333 10.0339 25.4776 10.0552 25.5185 10.075C25.6859 10.1557 25.7989 10.2102 25.8471 10.291C25.9071 10.3916 25.907 10.8727 25.7067 11.4342C25.5065 11.9958 24.5247 12.5375 24.0836 12.5775C24.0412 12.5814 23.999 12.5863 23.9555 12.5914C23.548 12.6393 23.0336 12.6998 21.1978 11.9758C18.9367 11.0841 17.4463 8.8735 17.1405 8.41985C17.1157 8.38308 17.0987 8.35785 17.0897 8.3458L17.0869 8.34199C17.0678 8.31645 17.0332 8.27023 16.9881 8.20624Z" fill="white"/>
<path d="M7.99962 0C3.49383 0 0 3.30184 0 7.75963C0 10.0915 0.955955 12.1074 2.51188 13.4994C2.64187 13.6154 2.72187 13.7793 2.72587 13.9553L2.76987 15.3793C2.77307 15.484 2.80196 15.5864 2.854 15.6774C2.90603 15.7684 2.97962 15.8452 3.0683 15.9011C3.15697 15.957 3.25802 15.9903 3.36256 15.998C3.4671 16.0056 3.57192 15.9875 3.66783 15.9452L5.25575 15.2453C5.38974 15.1853 5.54174 15.1753 5.68373 15.2133C6.4137 15.4133 7.18966 15.5213 7.99962 15.5213C12.5054 15.5213 15.9992 12.2194 15.9992 7.76163C15.9992 3.30384 12.5054 0 7.99962 0Z" fill="url(#paint1_radial_3001_719)"/>
<path d="M3.19576 10.0297L5.54565 6.30186C5.63405 6.16151 5.75059 6.04101 5.8879 5.94797C6.02522 5.85493 6.18034 5.79137 6.34346 5.7613C6.50658 5.73123 6.67416 5.73531 6.83563 5.77327C6.99709 5.81124 7.14894 5.88226 7.28157 5.98187L9.15148 7.3838C9.23496 7.4463 9.33652 7.47991 9.4408 7.47955C9.54508 7.47919 9.64641 7.44488 9.72945 7.3818L12.2533 5.4659C12.5893 5.20991 13.0293 5.61389 12.8053 5.97187L10.4534 9.69769C10.365 9.83804 10.2485 9.95854 10.1112 10.0516C9.97384 10.1446 9.81873 10.2082 9.65561 10.2383C9.49249 10.2683 9.3249 10.2642 9.16344 10.2263C9.00197 10.1883 8.85013 10.1173 8.7175 10.0177L6.84759 8.61575C6.76411 8.55325 6.66255 8.51964 6.55827 8.52C6.45399 8.52036 6.35266 8.55467 6.26961 8.61775L3.74573 10.5337C3.40975 10.7896 2.96977 10.3877 3.19576 10.0297Z" fill="white"/>
<defs>
<linearGradient id="paint0_linear_3001_719" x1="20.8353" y1="0.960173" x2="20.9164" y2="14.6332" gradientUnits="userSpaceOnUse">
<stop stop-color="#57D163"/>
<stop offset="1" stop-color="#23B33A"/>
</linearGradient>
<radialGradient id="paint1_radial_3001_719" cx="0" cy="0" r="1" gradientUnits="userSpaceOnUse" gradientTransform="translate(2.67987 15.9992) scale(17.5992)">
<stop stop-color="#4FB8FF"/>
<stop offset="0.6" stop-color="#AE51FF"/>
<stop offset="0.9" stop-color="#FF5280"/>
<stop offset="1" stop-color="#FF7061"/>
</radialGradient>
</defs>
</svg>
