<?xml version="1.0" encoding="UTF-8"?>
<!-- Generated by Pixelmator Pro 2.4.7 -->
<svg width="273" height="176" viewBox="0 0 273 176" xmlns="http://www.w3.org/2000/svg" xmlns:xlink="http://www.w3.org/1999/xlink">
    <g id="Erchys">
        <path id="erchys" fill="#000000" fill-rule="evenodd" stroke="none" d="M 271.815491 84.562279 C 271.815491 87.636459 269.488129 90.227524 264.833008 92.335541 C 260.968231 94.004372 257.235413 94.838783 253.634094 94.838783 C 251.262619 94.838783 248.539886 94.267876 245.465469 93.126045 C 243.796951 92.423386 241.11792 90.578896 237.428787 87.592529 C 233.388382 84.342682 231.368179 82.102966 231.368179 80.873276 C 231.368179 78.150436 232.993408 76.920792 236.243042 77.184296 L 237.033813 77.184296 C 237.209442 79.81929 240.019989 82.673851 245.465469 85.748039 C 250.384445 88.558716 254.336624 89.96405 257.323212 89.96405 C 261.187988 89.96405 263.119965 88.646561 263.119965 86.011543 C 263.119965 84.430527 260.748505 82.234718 256.005554 79.424034 C 249.505875 75.647186 245.070496 72.616966 242.69902 70.33329 C 237.867859 65.678093 235.452698 60.320305 235.452698 54.259781 C 235.452698 49.692406 236.638428 45.344696 239.009903 41.216522 C 241.732635 36.297836 245.15831 33.838516 249.28653 33.838516 C 252.27272 33.838516 255.874039 35.221863 260.090057 37.988647 C 264.305695 40.755417 266.765381 43.544083 267.467926 46.354767 C 268.170471 48.726288 268.521729 51.493011 268.521729 54.655014 C 268.521729 58.080544 267.907013 61.813431 266.677582 65.853775 C 265.88681 66.46862 264.964539 66.776031 263.910736 66.776031 C 263.295593 66.776031 262.32962 66.534485 261.011932 66.051392 C 259.694702 65.568321 259.035858 65.063271 259.035858 64.536263 C 259.035858 64.887611 259.519043 63.921448 260.485046 61.637772 C 261.187988 60.1446 261.539246 57.421783 261.539246 53.469276 C 261.539246 44.071045 258.596771 39.372009 252.711807 39.372009 C 249.637802 39.372009 247.178513 41.436066 245.333954 45.56427 C 243.752838 48.901947 242.962479 52.283493 242.962479 55.709023 C 242.962479 60.012871 245.465469 64.184921 250.47226 68.225273 C 252.140793 69.630623 256.752197 72.660851 264.305695 77.316048 C 269.3125 80.390228 271.815491 82.805603 271.815491 84.562279 Z M 225.439514 4.194748 C 225.439514 4.370407 225.154007 4.919373 224.583389 5.841629 C 224.012375 6.763885 223.682755 7.35675 223.59494 7.620255 C 223.068039 9.113434 222.804596 11.484894 222.804596 14.734772 C 222.804596 15.876587 222.870346 17.567368 223.002274 19.807144 C 223.133804 22.04689 223.199966 23.737671 223.199966 24.879501 C 223.199966 28.217178 221.926422 29.886017 219.378906 29.886017 C 217.798203 29.886017 216.788101 29.446854 216.349014 28.568497 C 216.173386 18.467621 216.085159 12.890244 216.085159 11.836243 C 216.085159 10.518753 216.2612 8.762085 216.612473 6.566254 C 217.139374 3.843414 217.710388 2.39418 218.325104 2.218491 C 218.676376 2.042831 219.159576 1.954987 219.774292 1.954987 C 223.551239 1.954987 225.439514 2.701584 225.439514 4.194748 Z M 210.288422 40.689529 C 209.585876 44.554214 208.927048 48.418831 208.31192 52.283516 C 207.521561 56.411713 207.12619 60.276352 207.12619 63.877533 L 206.994659 105.115295 C 206.994659 111.00016 205.215851 115.677231 201.658661 119.146667 C 198.101456 122.616104 193.336456 124.3508 187.363678 124.3508 C 184.114029 124.3508 180.469009 123.472473 176.428619 121.715805 C 171.773499 119.78347 168.567566 117.368073 166.810806 114.469543 C 166.371735 113.679039 166.151978 112.888557 166.151978 112.098053 C 166.151978 109.550873 167.381821 108.27729 169.84111 108.27729 C 170.368011 108.27729 170.939026 108.452957 171.553757 108.804298 C 173.047043 110.385315 174.540344 111.922363 176.033234 113.415558 C 179.019836 116.138397 182.796371 117.499794 187.363678 117.499794 C 193.160828 117.499794 197.025589 115.479645 198.957977 111.439293 C 200.099594 108.892113 200.670609 104.280907 200.670609 97.60553 C 200.670609 96.727211 200.49498 94.970566 200.143707 92.335541 C 199.792435 90.139709 199.70462 88.207375 199.880264 86.538544 C 197.420563 88.82222 195.66423 90.271454 194.610016 90.886276 C 192.677628 92.115974 190.569611 92.730797 188.285965 92.730797 C 182.313583 92.730797 177.789978 90.403236 174.715973 85.748039 C 171.992828 81.707687 170.63147 76.569473 170.63147 70.33329 C 170.63147 58.475716 170.807098 48.462814 171.158783 40.294266 C 171.51004 37.483597 173.047043 36.078262 175.769791 36.078262 C 179.107651 36.078262 180.60054 36.64917 180.249268 37.791031 C 178.580338 42.358383 177.746277 52.590851 177.746277 68.48877 C 177.746277 80.785507 181.259369 86.9338 188.285965 86.9338 C 192.589813 86.9338 196.015488 83.640068 198.562592 77.052544 C 200.49498 71.958183 201.417267 66.819969 201.329437 61.637772 L 201.19751 46.618271 C 201.285324 45.125107 201.395203 43.23671 201.52713 40.953033 C 201.658661 38.669342 203.086197 37.615341 205.808929 37.791031 C 208.970749 38.054535 210.46405 39.020676 210.288422 40.689529 Z M 161.54097 95.892792 C 160.838028 96.595459 159.520767 96.9468 157.588394 96.9468 C 156.621994 96.9468 155.611893 96.331955 154.55809 95.102287 C 154.645905 87.548592 154.690018 81.532051 154.690018 77.052544 C 154.690018 54.742752 150.956772 43.588028 143.491104 43.588028 C 140.328873 43.588028 137.693954 45.43251 135.585938 49.121513 C 133.741364 52.283546 132.819489 55.533333 132.819489 58.871017 C 132.819489 59.222366 132.709625 59.771324 132.489868 60.517899 C 132.270538 61.264496 132.16066 61.813454 132.16066 62.164772 L 132.16066 79.028786 C 132.16066 80.521957 132.380005 82.673851 132.819489 85.484535 C 133.258575 88.295219 133.477921 90.403206 133.477921 91.808533 C 133.477921 93.21389 132.424118 93.916557 130.316101 93.916557 C 128.8228 93.916557 127.571304 93.21389 126.561203 91.808533 C 125.551102 90.403206 125.046257 88.953972 125.046257 87.460777 L 125.836609 6.434494 C 125.660973 5.907486 125.573158 5.380508 125.573158 4.853516 C 125.573158 3.272491 126.451324 2.481995 128.208084 2.481995 C 129.086243 2.481995 130.381851 3.07486 132.094498 4.26062 C 133.807541 5.446381 134.663651 6.434494 134.663651 7.225006 C 134.663651 9.333023 134.246628 12.363251 133.412155 16.31575 C 132.577682 20.26828 132.16066 23.254578 132.16066 25.27475 C 132.16066 25.450439 132.248474 31.29129 132.424118 42.797516 C 135.673752 39.898987 138.177155 38.449753 139.933899 38.449753 C 142.744446 38.449753 146.126022 39.284164 150.078598 40.953033 C 157.71991 44.115021 161.54097 52.459129 161.54097 65.985527 Z M 119.512558 78.63353 C 119.512558 80.741547 117.712105 83.574135 114.110786 87.131409 C 110.509468 90.68869 107.567398 92.774704 105.283745 93.389549 C 102.209335 94.355713 99.662231 94.838783 97.642029 94.838783 C 91.230164 94.838783 86.311592 92.511223 82.88591 87.856026 C 79.724083 83.727837 78.142975 78.370079 78.142975 71.782524 C 78.142975 65.019333 79.592155 57.465744 82.490936 49.121513 C 86.091843 38.757141 90.571327 33.575012 95.92939 33.575012 C 98.476494 33.575012 101.858063 34.826614 106.074097 37.32988 C 110.290131 39.83316 112.661598 42.226578 113.188507 44.510284 C 113.803223 47.233124 114.110786 49.911995 114.110786 52.54702 C 114.110786 62.208733 112.661598 67.039536 109.763229 67.039536 C 109.060287 67.039536 108.225822 66.776031 107.259834 66.249031 C 106.293434 65.722023 105.810646 65.107208 105.810646 64.404518 C 105.810646 64.053192 105.986282 63.592079 106.337547 63.021141 C 106.68882 62.450226 106.908562 62.076958 106.996384 61.901268 C 107.347649 60.759445 107.523285 58.124474 107.523285 53.996284 C 107.523285 44.246735 105.327446 39.372009 100.935783 39.372009 C 96.105026 39.372009 92.152443 43.807571 89.078438 52.678772 C 86.794785 59.5298 85.652756 66.029411 85.652756 72.17778 C 85.652756 76.920815 86.399406 80.873276 87.892708 84.035301 C 89.912903 88.163467 93.030617 90.227547 97.246651 90.227547 C 99.794159 90.227547 102.78035 88.910065 106.20562 86.27504 C 109.280037 83.903519 111.563683 81.400299 113.056984 78.765282 C 113.408249 77.886955 113.93515 76.657288 114.637688 75.076279 C 115.076775 74.461456 115.691902 74.154045 116.482254 74.154045 C 117.009155 74.154045 117.645935 74.74691 118.392586 75.932648 C 119.139229 77.118408 119.512558 78.018707 119.512558 78.63353 Z M 74.717697 45.43251 C 74.717697 45.783859 74.673584 46.530426 74.58577 47.672287 C 73.444145 49.428955 72.34623 50.307274 71.292015 50.307274 C 70.589478 50.307274 69.97435 49.868118 69.447449 48.989769 C 69.183998 43.456253 66.900345 40.689529 62.596497 40.689529 C 59.785942 40.689529 57.019093 45.871628 54.296356 56.236023 C 53.242146 60.012871 52.71524 65.063248 52.71524 71.387268 C 52.71524 79.467995 52.93499 84.430527 53.374073 86.27504 C 53.461891 86.538544 53.681637 87.087502 54.032906 87.921921 C 54.384174 88.756332 54.559807 89.393105 54.559807 89.832298 C 54.559807 91.764626 53.242146 92.730797 50.607224 92.730797 C 47.621037 92.730797 46.127739 91.193718 46.127739 88.11953 C 46.127739 87.680367 46.237614 87.043594 46.456951 86.209152 C 46.676697 85.374741 46.786572 84.737961 46.786572 84.298775 C 46.786572 79.467918 46.566822 72.221741 46.127739 62.560028 C 45.688652 52.898315 45.468906 45.65213 45.468906 40.821274 C 45.468906 39.064575 45.77647 37.988647 46.39119 37.593384 C 47.005909 37.198135 48.191643 37.000519 49.948391 37.000519 C 52.144226 37.000519 53.417778 37.791 53.769455 39.372009 C 53.857273 41.128693 53.945087 42.841431 54.032906 44.510284 C 56.316559 40.996902 57.633812 39.020691 57.985081 38.581512 C 59.917465 36.385666 61.937664 35.28775 64.045685 35.28775 C 65.626801 35.28775 67.207909 35.770859 68.78862 36.737015 C 69.667198 37.264023 70.874985 38.625412 72.411987 40.821274 C 73.94899 43.017105 74.717697 44.554184 74.717697 45.43251 Z M 39.540237 79.292282 C 39.540237 83.156975 36.94902 86.626358 31.766998 89.700546 C 27.111879 92.511223 22.720209 93.916557 18.591991 93.916557 C 6.822467 93.916557 0.9375 86.450775 0.9375 71.51902 C 0.9375 64.931496 2.123234 57.86097 4.494703 50.307274 C 7.656933 40.469879 11.696925 35.551254 16.615904 35.551254 C 20.83194 35.551254 25.442945 37.681198 30.449335 41.941147 C 35.456131 46.201096 37.959122 50.439003 37.959122 54.655014 C 37.959122 60.100716 35.763287 64.843674 31.371618 68.884026 C 26.979948 72.924377 22.017673 74.944527 16.483974 74.944527 C 15.957072 74.944527 14.837099 74.505363 13.124462 73.627037 C 11.411418 72.748688 10.24774 72.309532 9.63302 72.309532 C 8.490991 72.309532 7.920384 72.660873 7.920384 73.363541 C 7.920384 83.464409 11.25784 88.514786 17.933161 88.514786 C 21.358841 88.514786 24.520662 87.372955 27.419443 85.089279 C 29.175783 83.771774 31.108166 81.70771 33.216183 78.897034 C 34.885117 76.701195 35.983032 75.603279 36.509933 75.603279 C 38.530136 75.603279 39.540237 76.832947 39.540237 79.292282 Z M 30.449335 55.050262 C 30.449335 51.976082 29.571163 49.099564 27.814415 46.420639 C 26.057665 43.741699 23.73031 42.402267 20.83194 42.402267 C 17.318441 42.402267 14.463775 44.598068 12.26794 48.989769 C 10.423374 52.678795 9.501091 56.499504 9.501091 60.452034 C 9.501091 62.999214 10.313909 65.129135 11.938728 66.841896 C 13.563548 68.554665 15.649508 69.411034 18.196611 69.411034 C 21.797926 69.411034 24.784115 67.873955 27.155582 64.799767 C 29.351418 61.98909 30.449335 58.739296 30.449335 55.050262 Z"/>
        <path id="coffee--plants" fill="#000000" fill-rule="evenodd" stroke="none" d="M 171.955078 175.183594 C 171.018082 175.183594 170.365021 175.046722 169.994141 174.773438 C 169.623276 174.500183 169.300598 173.602524 169.027344 172.080078 C 168.793304 170.791855 168.675781 169.776855 168.675781 169.035156 L 168.675781 154.162109 C 168.675781 152.795822 168.753723 150.961411 168.910156 148.658203 C 169.066193 145.964645 169.164322 144.130234 169.203125 143.154297 C 169.24234 142.100281 169.24234 140.733292 169.203125 139.054688 C 169.164322 136.907654 169.144531 135.521088 169.144531 134.896484 C 169.144531 132.202911 169.846481 130.857422 171.251953 130.857422 C 171.954498 130.857422 172.306641 131.109711 172.306641 131.617188 C 172.306641 132.593124 172.228302 134.018784 172.072266 135.892578 C 171.916245 137.766357 171.837891 139.172485 171.837891 140.109375 L 172.072266 140.109375 C 172.970047 138.899231 173.867447 137.669098 174.765625 136.419922 C 175.819427 135.053604 177.127945 134.369141 178.689453 134.369141 C 181.304764 134.369141 183.276047 135.540588 184.603516 137.882813 C 185.696533 139.756577 186.242188 142.099487 186.242188 144.910156 C 186.242188 148.774841 185.676743 152.015366 184.544922 154.630859 C 183.022217 158.261322 180.621262 160.076172 177.341797 160.076172 C 175.194977 160.076172 173.32103 159.080734 171.720703 157.089844 C 171.447464 157.20694 171.310547 158.417496 171.310547 160.720703 C 171.310547 165.795547 171.564972 169.386124 172.072266 171.494141 C 172.111481 171.689331 172.297241 172.158691 172.628906 172.900391 C 172.960556 173.642105 173.126953 174.089935 173.126953 174.246094 C 173.126953 174.870667 172.736038 175.183594 171.955078 175.183594 Z M 213.353516 161.773438 C 212.416534 161.773438 211.851486 161.384262 211.65625 160.603516 C 211.617447 160.48642 211.597656 159.723679 211.597656 158.318359 C 211.597656 157.927979 211.539108 157.617035 211.421875 157.382813 C 209.235855 158.983322 206.873657 159.783203 204.335938 159.783203 C 202.579193 159.783203 200.881699 159.294281 199.242188 158.318359 C 197.36821 157.225327 196.431641 155.860245 196.431641 154.220703 C 196.431641 152.620163 197.544693 151.057602 199.769531 149.535156 C 201.79953 148.129807 203.673096 147.427734 205.390625 147.427734 L 211.1875 147.427734 C 211.421951 147.193512 211.539063 146.78476 211.539063 146.199219 C 211.539063 143.58371 211.323822 141.612427 210.894531 140.285156 C 210.191589 138.060028 208.807083 136.947266 206.738281 136.947266 C 205.254791 136.947266 203.887711 137.884018 202.638672 139.757813 C 201.506439 141.475449 200.939453 143.114288 200.939453 144.675781 C 200.939453 144.753845 200.939453 144.871216 200.939453 145.027344 C 200.939453 145.183502 200.939453 145.281281 200.939453 145.320313 C 200.939453 145.632629 200.784714 145.789063 200.472656 145.789063 C 200.082169 145.789063 199.652084 145.554382 199.183594 145.085938 C 198.715088 144.617493 198.480469 144.206818 198.480469 143.855469 C 198.480469 142.762421 198.813232 141.387589 199.476563 139.728516 C 200.140289 138.069427 200.861618 136.809998 201.642578 135.951172 C 202.618378 134.897156 203.829147 134.369141 205.273438 134.369141 C 207.498672 134.369141 209.547913 135.073181 211.421875 136.478516 C 213.412674 138.000961 214.427582 139.835388 214.466797 141.982422 L 214.642578 160.955078 C 214.642578 161.501617 214.212082 161.773438 213.353516 161.773438 Z M 149.880859 161.189453 C 148.240921 161.189453 146.541916 160.622299 144.785156 159.490234 C 142.911591 158.280075 141.857086 157.656219 141.623047 157.617188 C 136.977325 159.608078 132.917648 160.603516 129.443359 160.603516 C 126.749626 160.603516 124.584831 160.055923 122.945313 158.962891 C 120.993324 157.635635 120.015625 155.703445 120.015625 153.166016 C 120.015625 150.667633 121.851959 147.388 125.521484 143.328125 C 125.833542 143.015839 126.242706 142.548431 126.75 141.923828 C 125.422943 139.230286 124.583687 137.434967 124.232422 136.537109 C 123.529884 134.624298 123.177734 132.672531 123.177734 130.681641 C 123.177734 127.480591 124.106567 124.844345 125.960938 122.775391 C 127.815308 120.706413 130.322144 119.671875 133.484375 119.671875 C 135.709213 119.671875 137.573074 120.395485 139.076172 121.839844 C 140.578873 123.284225 141.330078 125.118622 141.330078 127.34375 C 141.330078 128.553894 141.193176 129.58844 140.919922 130.447266 C 140.295395 132.242981 136.939209 136.263824 130.849609 142.509766 C 130.927628 143.407623 132.615417 145.525604 135.914063 148.863281 C 139.212723 152.200958 141.272049 153.869141 142.091797 153.869141 C 142.755127 153.869141 144.015182 153.196396 145.869141 151.849609 C 147.723511 150.502853 148.650391 149.536743 148.650391 148.951172 C 148.650391 148.209473 147.694016 147.544556 145.78125 146.958984 C 144.219742 146.451508 142.930603 146.199219 141.916016 146.199219 C 140.901016 146.199219 139.924866 146.451508 138.988281 146.958984 C 138.441772 146.68573 138.169922 146.316101 138.169922 145.847656 C 138.169922 144.715591 138.98938 144.148438 140.628906 144.148438 C 148.709274 144.148438 152.75 145.182999 152.75 147.251953 C 152.75 149.867447 150.074402 152.736389 144.726563 155.859375 C 145.195053 156.601074 146.0242 157.305115 147.214844 157.96875 C 148.405472 158.632385 149.44989 158.962891 150.347656 158.962891 C 150.620911 158.962891 151.031616 158.835754 151.578125 158.582031 C 152.124634 158.328278 152.554718 158.203125 152.867188 158.203125 C 152.984406 158.203125 153.256256 158.279419 153.685547 158.435547 L 153.685547 159.080078 C 153.685547 159.626587 153.178665 160.135071 152.164063 160.603516 C 151.305099 160.993896 150.544189 161.189453 149.880859 161.189453 Z M 49.339844 160.427734 C 48.168812 160.427734 47.583984 158.845596 47.583984 155.683594 C 47.583984 147.095398 47.662331 142.020462 47.818359 140.458984 C 47.896374 140.458984 46.900833 140.458984 44.832031 140.458984 C 43.933846 140.458984 43.484375 140.030701 43.484375 139.171875 C 43.484375 138.039795 44.264664 137.472656 45.826172 137.472656 L 47.935547 137.472656 C 48.013561 136.691925 48.089954 135.696472 48.167969 134.486328 C 48.753689 124.102402 51.663498 118.912109 56.894531 118.912109 C 60.251587 118.912109 61.929688 120.316277 61.929688 123.126953 C 61.929688 123.907707 61.342907 124.298828 60.171875 124.298828 C 59.937836 124.298828 59.763302 124.259705 59.646484 124.181641 C 59.490047 122.542068 58.396778 121.722656 56.367188 121.722656 C 54.454002 121.722656 52.97023 123.909088 51.916016 128.28125 C 51.213482 131.365173 50.863281 134.312378 50.863281 137.123047 C 51.136536 137.084015 51.486736 137.084015 51.916016 137.123047 C 52.853004 137.123047 53.380821 137.123047 53.498047 137.123047 C 54.824017 137.123047 55.539814 137.485107 55.648438 138.208984 C 55.999928 137.719208 56.686153 137.472656 57.712891 137.472656 L 59.822266 137.472656 C 59.90028 136.691925 59.976673 135.696472 60.054688 134.486328 C 60.640408 124.102417 63.55022 118.912109 68.78125 118.912109 C 72.138313 118.912109 73.816406 120.316284 73.816406 123.126953 C 73.816406 123.907707 73.22963 124.298828 72.058594 124.298828 C 71.824554 124.298828 71.650429 124.259705 71.533203 124.181641 C 71.377174 122.542068 70.283913 121.722656 68.253906 121.722656 C 66.341125 121.722656 64.856949 123.909088 63.802734 128.28125 C 63.100197 131.365173 62.75 134.312378 62.75 137.123047 C 63.023254 137.084015 63.373451 137.084015 63.802734 137.123047 C 64.739723 137.123047 65.26754 137.123047 65.384766 137.123047 C 66.829048 137.123047 67.550781 137.551331 67.550781 138.410156 C 67.550781 138.683441 67.511612 139.074524 67.433594 139.582031 C 66.808662 139.93335 65.832916 140.109375 64.505859 140.109375 C 63.49086 140.109375 62.867264 140.185638 62.632813 140.341797 C 62.515587 141.864258 62.457031 144.617798 62.457031 148.599609 L 62.457031 152.814453 C 62.457031 154.688248 62.670326 156.581314 63.099609 158.494141 C 63.177624 158.689331 63.216797 158.865326 63.216797 159.021484 C 63.216797 159.958374 62.554028 160.427734 61.226563 160.427734 C 60.055531 160.427734 59.470703 158.845581 59.470703 155.683594 C 59.470703 147.095413 59.549049 142.020462 59.705078 140.458984 C 59.783092 140.458984 58.787548 140.458984 56.71875 140.458984 C 56.003399 140.458984 55.573345 140.185608 55.427734 139.640625 C 54.80072 139.95134 53.867157 140.109375 52.619141 140.109375 C 51.604141 140.109375 50.980137 140.185638 50.746094 140.341797 C 50.628868 141.864258 50.570313 144.617798 50.570313 148.599609 L 50.570313 152.814453 C 50.570313 154.688248 50.783607 156.581314 51.212891 158.494141 C 51.290905 158.689331 51.330078 158.865326 51.330078 159.021484 C 51.330078 159.958374 50.667309 160.427734 49.339844 160.427734 Z M 262.306641 160.369141 C 261.252441 160.369141 260.042023 160.114899 258.675781 159.607422 C 257.934021 159.295105 256.743439 158.475693 255.103516 157.148438 C 253.307953 155.704056 252.410156 154.708618 252.410156 154.162109 C 252.410156 152.95195 253.13385 152.404358 254.578125 152.521484 L 254.927734 152.521484 C 255.006165 153.692581 256.255707 154.961838 258.675781 156.328125 C 260.862213 157.577316 262.617859 158.203125 263.945313 158.203125 C 265.662842 158.203125 266.523438 157.616409 266.523438 156.445313 C 266.523438 155.74263 265.46936 154.766754 263.361328 153.517578 C 260.472778 151.838974 258.501068 150.491531 257.447266 149.476563 C 255.300049 147.407578 254.226563 145.027557 254.226563 142.333984 C 254.226563 140.304062 254.752426 138.371872 255.806641 136.537109 C 257.016876 134.351044 258.540222 133.257813 260.375 133.257813 C 261.702057 133.257813 263.302216 133.871887 265.175781 135.101563 C 267.049774 136.331238 268.142639 137.571106 268.455078 138.820313 C 268.767151 139.874329 268.923828 141.104416 268.923828 142.509766 C 268.923828 144.032211 268.650024 145.690628 268.103516 147.486328 C 267.752228 147.759613 267.343506 147.896484 266.875 147.896484 C 266.601746 147.896484 266.171234 147.78891 265.585938 147.574219 C 265.021362 147.367249 264.731323 147.150864 264.710938 146.925781 C 264.741882 146.985382 264.955841 146.548965 265.351563 145.613281 C 265.664032 144.949646 265.820313 143.73909 265.820313 141.982422 C 265.820313 137.80542 264.512207 135.716797 261.896484 135.716797 C 260.530212 135.716797 259.436951 136.634003 258.617188 138.46875 C 257.914642 139.952164 257.564453 141.45607 257.564453 142.978516 C 257.564453 144.891342 258.675171 146.745316 260.900391 148.541016 C 261.642151 149.165619 263.691742 150.511124 267.048828 152.580078 C 269.274048 153.946396 270.386719 155.02005 270.386719 155.800781 C 270.386719 157.167068 269.352417 158.31897 267.283203 159.255859 C 265.565643 159.997559 263.906952 160.369141 262.306641 160.369141 Z M 264.710938 146.925781 C 264.710938 146.925781 264.708984 146.923828 264.708984 146.923828 C 264.707306 146.91864 264.707031 146.910156 264.707031 146.900391 C 264.707031 146.908844 264.710175 146.917358 264.710938 146.925781 Z M 192.332031 160.193359 C 190.614075 160.193359 189.775238 156.659454 189.814453 149.59375 L 189.990234 123.302734 C 189.990234 122.873322 189.931686 122.259247 189.814453 121.458984 C 189.697235 120.658722 189.638672 120.062256 189.638672 119.671875 C 190.380417 119.125366 191.006378 118.853516 191.513672 118.853516 C 192.060593 118.853516 192.60585 119.047119 193.152344 119.4375 C 193.698853 119.827881 193.972656 120.297241 193.972656 120.84375 C 193.972656 121.234131 193.874924 121.740631 193.679688 122.365234 C 193.445236 123.145988 193.308746 123.634888 193.269531 123.830078 C 192.801041 126.484619 192.566406 130.192535 192.566406 134.955078 C 192.566406 142.645386 192.546616 146.355286 192.507813 146.082031 C 192.624634 150.883591 192.938004 154.493744 193.445313 156.914063 C 193.445313 157.031158 193.533356 157.295197 193.708984 157.705078 C 193.885025 158.11499 193.972656 158.435699 193.972656 158.669922 C 193.972656 159.684891 193.425034 160.193359 192.332031 160.193359 Z M 236.484375 160.193359 C 236.055084 160.193359 235.350784 159.919556 234.375 159.373047 L 234.375 158.904297 C 234.375 158.552979 234.394791 158.026886 234.433594 157.324219 C 234.472794 156.621552 234.492188 156.113098 234.492188 155.800781 C 234.492188 142.840439 232.87265 136.361328 229.632813 136.361328 C 228.617798 136.361328 227.524551 137.102524 226.353516 138.585938 C 223.38652 142.255432 221.902344 146.880569 221.902344 152.462891 C 221.902344 153.20459 222.029556 154.28801 222.283203 155.712891 C 222.53685 157.137741 222.664063 158.221191 222.664063 158.962891 C 222.664063 159.548462 222.25531 159.841797 221.435547 159.841797 C 219.874039 159.841797 219.091797 158.611679 219.091797 156.152344 L 219.091797 142.861328 C 219.091797 142.51001 219.130966 142.001541 219.208984 141.337891 C 219.287003 140.674255 219.326172 140.167725 219.326172 139.816406 C 219.326172 139.308899 219.257507 138.565765 219.121094 137.589844 C 218.984253 136.613907 218.916016 135.892273 218.916016 135.423828 C 218.916016 135.111511 219.160339 134.749756 219.648438 134.339844 C 220.136536 133.929962 220.517761 133.726563 220.791016 133.726563 C 221.298721 133.726563 221.766022 133.998413 222.195313 134.544922 C 222.078079 137.082336 222.019531 138.566681 222.019531 138.996094 C 222.019531 139.581665 222.039322 140.146851 222.078125 140.693359 C 222.42981 140.576263 222.898651 139.932831 223.484375 138.761719 C 224.22612 137.278305 224.849716 136.263336 225.357422 135.716797 C 226.293991 134.623749 227.368286 134.078125 228.578125 134.078125 C 229.046616 134.078125 229.748962 134.252167 230.685547 134.603516 C 232.793564 135.384277 234.297531 136.673035 235.195313 138.46875 C 236.717606 141.552673 237.478516 145.632217 237.478516 150.707031 L 237.478516 159.548828 C 237.244476 159.978241 236.913651 160.193359 236.484375 160.193359 Z M 245.619141 160.076172 C 244.838593 160.076172 244.212234 159.276321 243.744141 157.675781 C 243.431686 156.504684 243.275391 155.391891 243.275391 154.337891 C 243.275391 148.833664 243.31456 144.773697 243.392578 142.158203 C 243.158539 141.963013 242.260727 141.963013 240.699219 142.158203 C 239.450165 142.314362 238.826172 141.864532 238.826172 140.810547 C 238.826172 139.327133 240.406128 138.644592 243.568359 138.761719 L 244.330078 128.164063 C 244.330078 128.046967 244.281219 127.861145 244.183594 127.607422 C 244.085983 127.353668 244.037109 127.167908 244.037109 127.050781 C 244.037109 126.816559 244.193802 126.591644 244.505859 126.376953 C 244.818314 126.162231 245.189865 126.074249 245.619141 126.113281 C 246.985413 126.230377 247.667969 126.914886 247.667969 128.164063 C 247.667969 129.140015 247.531067 130.602829 247.257813 132.554688 C 246.984558 134.506531 246.847656 135.951767 246.847656 136.888672 C 246.847656 137.357117 246.886841 137.804962 246.964844 138.234375 L 250.185547 138.058594 C 251.278564 138.058594 251.824219 138.488831 251.824219 139.347656 C 251.824219 139.972229 251.571747 140.459198 251.064453 140.810547 C 250.751984 141.044769 250.01088 141.240326 248.839844 141.396484 C 247.55159 141.552643 246.808517 141.689514 246.613281 141.806641 C 246.574478 142.236053 246.554688 144.402924 246.554688 148.306641 C 246.554688 151.351532 246.59346 153.401077 246.671875 154.455078 C 246.671875 154.884491 246.77002 155.567017 246.964844 156.503906 C 247.16008 157.440811 247.257813 158.162445 247.257813 158.669922 C 247.257813 158.982239 247.061951 159.295105 246.671875 159.607422 C 246.281403 159.919708 245.93161 160.076172 245.619141 160.076172 Z M 76.216797 159.958984 C 70.985771 159.958984 68.371094 156.640228 68.371094 150.003906 C 68.371094 147.076111 68.897369 143.93335 69.951172 140.576172 C 71.356659 136.203979 73.151855 134.019531 75.337891 134.019531 C 77.211861 134.019531 79.261086 134.966064 81.486328 136.859375 C 83.711571 138.75267 84.824219 140.635971 84.824219 142.509766 C 84.824219 144.930069 83.848061 147.038254 81.896484 148.833984 C 79.944496 150.629684 77.738579 151.527344 75.279297 151.527344 C 75.044846 151.527344 74.548462 151.331787 73.787109 150.941406 C 73.026169 150.551025 72.507629 150.355469 72.234375 150.355469 C 71.727081 150.355469 71.474609 150.511902 71.474609 150.824219 C 71.474609 155.313477 72.956841 157.558594 75.923828 157.558594 C 77.446129 157.558594 78.852371 157.050125 80.140625 156.035156 C 80.921173 155.449585 81.779808 154.532394 82.716797 153.283203 C 83.458542 152.307281 83.947189 151.820313 84.181641 151.820313 C 85.079414 151.820313 85.527344 152.365952 85.527344 153.458984 C 85.527344 155.17662 84.375107 156.71962 82.072266 158.085938 C 80.003044 159.335129 78.051559 159.958984 76.216797 159.958984 Z M 96.007813 159.958984 C 90.776794 159.958984 88.162109 156.640228 88.162109 150.003906 C 88.162109 147.076111 88.689926 143.93335 89.744141 140.576172 C 91.149208 136.203979 92.944824 134.019531 95.130859 134.019531 C 97.004425 134.019531 99.054054 134.966064 101.279297 136.859375 C 103.504135 138.75267 104.617188 140.635971 104.617188 142.509766 C 104.617188 144.930069 103.641441 147.038254 101.689453 148.833984 C 99.737869 150.629684 97.531555 151.527344 95.072266 151.527344 C 94.837814 151.527344 94.339478 151.331787 93.578125 150.941406 C 92.816772 150.551025 92.300598 150.355469 92.027344 150.355469 C 91.519638 150.355469 91.265625 150.511902 91.265625 150.824219 C 91.265625 155.313477 92.749809 157.558594 95.716797 157.558594 C 97.239098 157.558594 98.643791 157.050125 99.931641 156.035156 C 100.712601 155.449585 101.571236 154.532394 102.507813 153.283203 C 103.249565 152.307281 103.738617 151.820313 103.972656 151.820313 C 104.870438 151.820313 105.318359 152.365952 105.318359 153.458984 C 105.318359 155.17662 104.166542 156.71962 101.863281 158.085938 C 99.794479 159.335129 97.842583 159.958984 96.007813 159.958984 Z M 177.341797 158.318359 C 179.489029 158.318359 181.110107 156.562195 182.203125 153.048828 C 182.984085 150.550461 183.373047 147.916168 183.373047 145.144531 C 183.373047 143.075562 183.158203 141.29982 182.728516 139.816406 C 182.065186 137.630341 180.992859 136.537109 179.509766 136.537109 C 178.416748 136.537109 177.088852 137.493423 175.527344 139.40625 C 174.161072 141.084854 173.204712 142.801926 172.658203 144.558594 C 172.228516 145.885849 171.87677 147.837601 171.603516 150.414063 C 171.408279 152.287857 171.310547 153.185516 171.310547 153.107422 C 171.310547 153.224548 171.486221 153.420105 171.837891 153.693359 C 172.07193 153.849518 172.306564 154.025513 172.541016 154.220703 C 173.165543 155.118561 173.799225 156.026001 174.443359 156.943359 C 175.087479 157.860748 176.053543 158.318359 177.341797 158.318359 Z M 128.800781 158.027344 C 129.932999 158.027344 131.728226 157.733978 134.1875 157.148438 C 136.998062 156.523834 138.519867 155.899994 138.753906 155.275391 C 135.201614 152.347626 131.786865 148.833282 128.507813 144.734375 C 125.22876 148.286743 123.587891 151.527283 123.587891 154.455078 C 123.587891 155.938492 124.135506 156.933929 125.228516 157.441406 C 125.970268 157.831787 127.161255 158.027344 128.800781 158.027344 Z M 204.511719 157.382813 C 206.190445 157.382813 207.782471 156.83522 209.285156 155.742188 C 210.788254 154.649155 211.539063 153.284103 211.539063 151.644531 C 211.539063 150.083054 210.32869 149.302734 207.908203 149.302734 C 205.995422 149.302734 204.317734 149.63324 202.873047 150.296875 C 201.038284 151.155701 200.121094 152.444473 200.121094 154.162109 C 200.121094 155.21611 200.608185 156.035522 201.583984 156.621094 C 202.403748 157.128571 203.379898 157.382813 204.511719 157.382813 Z M 76.041016 149.068359 C 77.641327 149.068359 78.969635 148.383865 80.023438 147.017578 C 80.999229 145.768387 81.486328 144.325119 81.486328 142.685547 C 81.486328 141.319244 81.096954 140.040253 80.316406 138.849609 C 79.535446 137.658966 78.501152 137.064453 77.212891 137.064453 C 75.651382 137.064453 74.382454 138.040329 73.40625 139.992188 C 72.586494 141.63176 72.175781 143.329269 72.175781 145.085938 C 72.175781 146.218002 72.537628 147.164551 73.259766 147.925781 C 73.981911 148.687012 74.908791 149.068359 76.041016 149.068359 Z M 95.832031 149.068359 C 97.432747 149.068359 98.760246 148.383865 99.814453 147.017578 C 100.790245 145.768387 101.279297 144.325119 101.279297 142.685547 C 101.279297 141.319244 100.88797 140.040253 100.107422 138.849609 C 99.326462 137.658966 98.29216 137.064453 97.003906 137.064453 C 95.442398 137.064453 94.17305 138.040329 93.197266 139.992188 C 92.377502 141.63176 91.96875 143.329269 91.96875 145.085938 C 91.96875 146.218002 92.330589 147.164551 93.052734 147.925781 C 93.774872 148.687012 94.700211 149.068359 95.832031 149.068359 Z M 128.917969 139.699219 C 131.104004 138.137726 133.132294 136.146851 135.005859 133.726563 C 137.23111 130.798767 138.34375 128.260315 138.34375 126.113281 C 138.34375 124.82505 137.934998 123.770958 137.115234 122.951172 C 136.295471 122.131378 135.241379 121.722656 133.953125 121.722656 C 131.805893 121.722656 129.942032 122.639847 128.361328 124.474609 C 126.780212 126.309349 125.990234 128.319778 125.990234 130.505859 C 125.990234 131.755051 126.281471 133.354797 126.867188 135.306641 C 127.491707 137.414642 128.176224 138.879425 128.917969 139.699219 Z M 41.49345 147.720749 C 41.49345 151.077972 40.751701 154.005722 39.268208 156.504089 C 37.511868 159.509964 35.071777 161.012878 31.948759 161.012878 C 28.786938 161.012878 26.425272 159.783203 24.863762 157.323883 C 23.575506 155.293945 22.931379 152.600418 22.931379 149.243195 C 22.931379 145.925049 23.673126 142.665466 25.156622 139.464417 C 27.030188 135.521667 29.411459 133.550293 32.300434 133.550293 C 33.042183 133.550293 34.095989 133.979706 35.462257 134.838531 C 39.483051 137.336914 41.49345 141.630951 41.49345 147.720749 Z M 38.682896 147.662216 C 38.682896 145.163818 38.351234 142.919205 37.6875 140.928314 C 36.7113 138.156662 35.208611 136.770859 33.178608 136.770859 C 30.836546 136.770859 29.001783 138.312805 27.674316 141.396744 C 26.659315 143.778015 26.152018 146.33493 26.152018 149.067535 C 26.152018 151.526886 26.503286 153.59584 27.205822 155.274414 C 28.220823 157.577621 29.801939 158.729202 31.948759 158.729202 C 34.291229 158.729202 36.067173 157.401962 37.277416 154.747421 C 38.214401 152.678452 38.682896 150.316742 38.682896 147.662216 Z M 20.003599 153.166428 C 20.003599 154.103317 19.203444 155.362259 17.602722 156.943253 C 16.002411 158.524261 14.69455 159.451401 13.679548 159.724655 C 12.313278 160.154053 11.181051 160.368759 10.283275 160.368759 C 7.43351 160.368759 5.247478 159.33429 3.72518 157.26532 C 2.319699 155.430573 1.617163 153.049332 1.617163 150.121521 C 1.617163 147.115677 2.261291 143.758514 3.549546 140.049988 C 5.149858 135.443573 7.141059 133.140411 9.52233 133.140411 C 10.654149 133.140411 12.157249 133.696701 14.030816 134.80925 C 15.904791 135.921814 16.958595 136.98555 17.193047 138.000519 C 17.466301 139.210693 17.602722 140.401306 17.602722 141.572418 C 17.602722 145.866516 16.958595 148.013535 15.67034 148.013535 C 15.358283 148.013535 14.987409 147.896439 14.558126 147.662216 C 14.128436 147.427963 13.913999 147.154709 13.913999 146.842422 C 13.913999 146.686264 13.992013 146.481323 14.148042 146.227585 C 14.30407 145.973846 14.40169 145.807953 14.440901 145.729858 C 14.59693 145.222382 14.674944 144.05127 14.674944 142.216537 C 14.674944 137.883408 13.699154 135.716858 11.747165 135.716858 C 9.600345 135.716858 7.843595 137.688217 6.477325 141.630966 C 5.462324 144.675873 4.955027 147.56459 4.955027 150.297211 C 4.955027 152.405197 5.28669 154.16188 5.950423 155.5672 C 6.848199 157.401962 8.234075 158.319321 10.107641 158.319321 C 11.239868 158.319321 12.566926 157.733749 14.089633 156.562653 C 15.455903 155.508636 16.470903 154.396088 17.13423 153.224991 C 17.290667 152.83461 17.524708 152.288101 17.837173 151.585419 C 18.032413 151.312164 18.305668 151.175537 18.656937 151.175537 C 18.890978 151.175537 19.174036 151.439041 19.505697 151.966034 C 19.837769 152.493042 20.003599 152.893173 20.003599 153.166428 Z"/>
    </g>
</svg>
