<?xml version="1.0" encoding="UTF-8"?>
<!-- Generated by Pixelmator Pro 2.4.7 -->
<svg width="200" height="100" viewBox="0 0 200 100" xmlns="http://www.w3.org/2000/svg" xmlns:xlink="http://www.w3.org/1999/xlink">
    <path id="Path" fill="#000000" stroke="none" d="M 27.279167 13.020836 L 27.279167 38.054169 C 27.279167 38.054169 36.099998 38.054169 40.820831 37.695831 C 44.533333 37.045834 45.216667 36.6875 45.899998 32.974998 L 47.266666 27.537506 L 51.304165 27.537506 L 50.620834 39.420834 L 50.979164 51.595837 L 46.908337 51.595837 L 45.899998 46.841663 C 44.891666 43.458336 43.525002 42.770836 40.820831 42.445835 C 37.4375 42.087498 27.279167 42.087498 27.279167 42.087498 L 27.279167 63.083336 C 27.279167 67.120834 29.329166 68.84584 34.049999 68.84584 L 48.275002 68.84584 C 52.670834 68.84584 57.0625 68.487503 59.799999 62.075001 L 63.479164 53.9375 L 66.895836 53.9375 C 66.537498 55.629166 64.845833 70.537506 64.520828 73.891663 C 64.520828 73.891663 51.662502 73.566666 46.258335 73.566666 L 21.875 73.566666 L 7.325 73.891663 L 7.325 70.212502 L 12.045834 69.17083 C 15.4625 68.487503 16.470833 67.479164 16.470833 64.774994 C 16.470833 64.774994 16.829166 55.629166 16.829166 40.391666 C 16.829166 25.191666 16.470833 16.041672 16.470833 16.041672 C 16.470833 13.012497 15.4625 12.329163 12.045834 11.645836 L 7.325 10.645836 L 7.325 6.933334 L 21.549999 7.224998 L 48.633331 7.224998 C 54.037498 7.224998 63.150002 6.25 63.150002 6.25 C 63.150002 6.25 62.825001 11.979164 62.466663 25.520836 L 58.754166 25.520836 L 57.387501 20.76667 C 56.054169 14.679169 54.033337 11.650002 50.291664 11.650002 L 29.004166 11.650002 C 27.279167 11.654167 27.279167 11.979164 27.279167 13.020836 Z M 82.095833 15.691673 L 86.166664 15.691673 L 86.166664 29.916664 L 100.066673 29.23333 L 99.383331 35.679169 L 85.841667 34.637497 L 85.841667 59.70417 C 85.841667 66.800003 88.216667 69.533333 92.287498 69.533333 C 95.966667 69.533333 98.699997 67.48333 99.708336 65.791672 L 101.724998 68.166672 C 99.708336 72.887497 93.979164 75.262497 88.541664 75.262497 C 81.804161 75.262497 76.333328 71.224998 76.333328 63.445835 L 76.333328 34.991669 L 68.258331 34.991669 L 68.258331 31.608337 C 75.033333 30.925003 80.079163 26.854164 82.095833 15.691673 Z M 111.229164 59.341663 L 113.929169 65.787498 C 114.9375 68.487503 117.3125 71.224998 122.716667 71.224998 C 128.479156 71.224998 130.854172 68.166672 130.854172 64.454163 C 130.854172 52.929169 108.166664 56.316666 108.166664 40.754166 C 108.166664 31.966667 115.262497 27.862503 124.408333 27.862503 C 128.479156 27.862503 134.566666 28.54583 137.625 29.912506 C 136.941666 33.295837 136.583328 37.691666 136.583328 41.079166 L 133.229172 41.404167 L 130.854172 34.633331 C 130.170837 32.974998 127.4375 31.604164 124.083336 31.604164 C 120.012497 31.604164 115.945831 33.295837 115.945831 37.691666 C 115.945831 48.174999 139.316666 45.829166 139.316666 61.391666 C 139.316666 70.212502 131.537506 74.933334 122.033333 74.933334 C 114.9375 74.933334 107.808334 72.199997 107.808334 72.199997 C 108.491669 68.162498 108.166664 63.770836 107.808334 59.341663 L 111.229164 59.341663 Z M 137.629166 91.829163 C 138.637497 88.116669 139.320831 83.400002 140.004181 78.970825 L 143.716675 78.645836 L 145.083328 85.741661 C 145.408325 87.433334 146.416672 88.800003 149.120834 88.800003 C 153.516678 88.800003 159.279175 86.099998 164.712494 76.625 C 162.304169 70.862503 155.208328 52.274998 148.762497 38.049999 C 147.070831 34.308334 146.745834 33.979164 144.399994 33.295837 L 142.675003 32.645828 L 142.675003 29.229164 L 152.862503 29.587502 L 165.362503 28.904167 L 165.362503 32.291664 L 162.304169 32.974998 C 159.929169 33.300003 158.949997 34.633331 158.949997 36.004166 C 158.949997 36.362499 158.949997 36.6875 159.275009 37.370834 C 159.925003 39.420834 165.362503 54.625 169.433334 64.779167 C 172.787506 57.683334 179.233322 41.766666 180.241669 39.0625 C 180.600006 37.695831 180.925003 37.370834 180.925003 36.362499 C 180.925003 34.637497 179.916672 33.629166 177.570831 32.979172 L 175.162506 32.291664 L 175.162506 28.908333 L 184.666672 29.23333 L 193.454178 28.908333 L 193.454178 32.291664 L 191.762497 33.625 C 188.379166 34.991669 188.020828 35.316666 186.683334 38.049999 L 171.808334 72.879166 C 162.987503 92.866669 153.841675 94.558334 147.425003 94.558334 C 143.358322 94.5625 140.300003 93.520828 137.629166 91.829163 Z"/>
</svg>
