<svg width="261" height="94" viewBox="0 0 261 94" fill="none" xmlns="http://www.w3.org/2000/svg">
<g clip-path="url(#clip0)">
<path d="M48.6049 41.8977L44.6653 47.6256C44.587 47.738 44.453 47.8249 44.3161 47.8296C44.1792 47.8344 44.0677 47.7835 44.0082 47.6486C42.5748 45.0679 39.692 42.5926 36.413 42.899C35.6482 42.9805 34.892 43.3083 34.4504 44.0088C34.0872 44.597 34.0827 45.2548 34.268 45.8512C34.5451 46.7185 35.2251 47.3524 35.9533 47.7928C36.7939 48.3116 37.7137 48.7453 38.6326 49.1517C39.6629 49.6089 40.6932 50.0662 41.7235 50.5235C44.3423 51.72 48.0773 53.4804 48.9775 56.4908C49.1013 56.8975 49.1704 57.3062 49.1857 57.7441C49.2603 59.879 48.2848 61.7765 46.7521 63.4194C43.8981 66.4786 39.8168 67.361 36.1005 67.71C32.1643 68.0393 28.287 66.9142 25.1005 65.162C25.0164 65.1101 24.9588 65.0299 24.9276 64.9214C24.8964 64.8129 24.9474 64.7015 24.9992 64.6175L28.8624 59.0567C28.9408 58.9443 29.0484 58.8858 29.1569 58.8546C29.2938 58.8498 29.3769 58.8743 29.462 58.9535C30.5162 60.0951 31.8394 61.0902 33.1824 61.8654C34.5811 62.6661 36.2517 63.4024 37.906 63.6735C39.0089 63.8542 40.5187 63.9111 41.5324 63.1084C41.7996 62.9072 42.01 62.6533 42.1912 62.3455C42.3978 61.982 42.3816 61.5167 42.287 61.1638C42.1545 60.5107 41.7511 59.9494 41.2977 59.5267C37.8291 55.9758 29.4765 55.4454 27.9268 50.3202C27.6772 49.452 27.6173 48.5224 27.7765 47.5851C28.092 45.6284 29.2639 43.8611 30.8364 42.573C33.1819 40.6551 36.2199 39.7269 39.0354 39.4916C42.644 39.2011 45.4089 39.8719 48.5027 41.3258C48.6142 41.3767 48.6718 41.4569 48.6756 41.5664C48.7068 41.6749 48.6833 41.7854 48.6049 41.8977Z" fill="black"/>
<path d="M57.406 58.4161C57.3929 58.8277 57.4149 59.4572 57.8323 59.6344C58.3895 59.889 59.4911 59.2476 60.0009 58.9284C60.537 58.5808 61.1534 58.1757 61.631 57.7205L61.8839 50.8334L60.8351 49.0614C60.7775 48.9812 60.7737 48.8717 60.8246 48.7604C60.8756 48.649 60.9284 48.5923 61.036 48.5337L62.1981 48.0547L67.8294 46.022C67.938 45.9908 68.0201 45.988 68.1051 46.0672C68.1892 46.1191 68.2204 46.2276 68.2233 46.3097L67.7597 59.7262L68.6057 61.9712C68.6369 62.0797 68.6407 62.1892 68.5614 62.2741C68.4831 62.3865 68.4029 62.4441 68.2933 62.4479L61.7069 63.0342C61.5152 63.0409 61.3735 62.9088 61.3942 62.7162L61.4435 60.9881C60.645 61.6737 59.8456 62.3319 58.9875 62.8825C57.9416 63.5493 56.8002 63.8358 55.6531 63.9581C52.7838 64.2227 51.0533 62.5567 51.1701 59.6204L51.4415 51.6913L50.3927 49.9193C50.335 49.8391 50.3312 49.7297 50.3822 49.6183C50.4331 49.5069 50.4859 49.4502 50.5936 49.3917L51.7557 48.9126L57.3869 46.8799C57.4955 46.8487 57.5777 46.8459 57.6627 46.9251C57.7467 46.977 57.7779 47.0855 57.7808 47.1676L57.6055 52.353L57.4595 57.5922L57.406 58.4161Z" fill="black"/>
<path d="M81.5373 58.5874L81.8367 49.89C81.8507 49.5059 81.8239 48.7395 81.4075 48.5896C80.9079 48.4153 79.9423 49.0245 79.5147 49.3408C79.0059 49.6874 78.5274 50.1152 78.0753 50.5146C77.9811 53.3131 77.8595 56.1125 77.738 58.9119L78.584 61.1568C78.6152 61.2654 78.619 61.3748 78.5397 61.4598C78.4614 61.5722 78.3812 61.6298 78.2716 61.6336L70.8921 62.2749C70.7825 62.2788 70.6721 62.2552 70.6135 62.1477C70.5549 62.0401 70.552 61.958 70.603 61.8466L71.616 59.4545L71.9593 49.6595L70.8682 48.2452C70.8106 48.165 70.7793 48.0565 70.8303 47.9451C70.8538 47.8346 70.9605 47.7487 71.0417 47.7185L72.2038 47.2394L77.8351 45.2067C77.9436 45.1756 78.0258 45.1727 78.1108 45.2519C78.1949 45.3038 78.2261 45.4123 78.2289 45.4944L78.1796 47.2226C78.7638 46.6815 79.3481 46.1404 79.989 45.6522C81.1103 44.7909 82.4112 44.3619 83.751 44.2603C85.6922 44.1103 87.2552 44.9052 87.8376 46.6661C88.5559 46.0381 89.2722 45.3554 90.0462 44.7529C91.1675 43.8917 92.4685 43.4626 93.8082 43.361C94.7382 43.3011 95.6759 43.4602 96.4314 43.8997C97.7197 44.6768 98.181 46.1131 98.1269 47.7043L97.7817 57.4446L98.5067 59.365C98.5379 59.4735 98.5418 59.583 98.4625 59.668C98.3842 59.7803 98.3039 59.8379 98.1944 59.8417L90.8696 60.4812C90.7601 60.485 90.6496 60.4615 90.591 60.3539C90.5334 60.2737 90.5295 60.1642 90.5805 60.0528L91.5935 57.6607L91.8929 48.9634C91.9069 48.5792 91.8802 47.8129 91.4637 47.663C90.9642 47.4886 89.9985 48.0978 89.5709 48.4142C89.0357 48.7891 88.5298 49.2178 88.0796 49.672L87.7793 58.342L88.5043 60.2623C88.5355 60.3709 88.5393 60.4803 88.46 60.5653C88.3817 60.6777 88.3015 60.7353 88.1919 60.7391L80.8671 61.3785C80.7576 61.3824 80.6471 61.3588 80.5885 61.2512C80.5309 61.1711 80.5271 61.0616 80.578 60.9502L81.5373 58.5874Z" fill="black"/>
<path d="M111.437 55.9538L111.736 47.2565C111.75 46.8723 111.723 46.106 111.307 45.9561C110.807 45.7817 109.842 46.3909 109.414 46.7073C108.905 47.0539 108.427 47.4817 107.975 47.8811C107.881 50.6795 107.759 53.4789 107.637 56.2783L108.483 58.5233C108.515 58.6318 108.518 58.7413 108.439 58.8263C108.361 58.9386 108.281 58.9962 108.171 59L100.791 59.6414C100.682 59.6452 100.571 59.6217 100.513 59.5141C100.455 59.4339 100.451 59.3244 100.502 59.213L101.515 56.821L101.859 47.0259L100.768 45.6116C100.71 45.5314 100.679 45.4229 100.73 45.3115C100.781 45.2001 100.86 45.1152 100.941 45.0849L102.103 44.6059L107.734 42.5732C107.843 42.542 107.925 42.5391 108.01 42.6184C108.094 42.6702 108.125 42.7788 108.128 42.8609L108.079 44.589C108.663 44.048 109.248 43.5069 109.888 43.0186C111.01 42.1574 112.311 41.7283 113.65 41.6267C115.592 41.4767 117.155 42.2716 117.737 44.0325C118.455 43.4046 119.172 42.7219 119.946 42.1194C121.067 41.2581 122.368 40.829 123.708 40.7274C124.638 40.6676 125.575 40.8266 126.331 41.2661C127.619 42.0432 128.08 43.4795 128.026 45.0708L127.71 54.8649L128.435 56.7852C128.467 56.8937 128.47 57.0032 128.391 57.0882C128.313 57.2005 128.233 57.2582 128.123 57.262L120.798 57.9014C120.689 57.9052 120.578 57.8817 120.52 57.7741C120.462 57.6939 120.458 57.5844 120.509 57.4731L121.522 55.081L121.822 46.3836C121.836 45.9995 121.809 45.2331 121.392 45.0832C120.893 44.9089 119.927 45.518 119.5 45.8344C118.964 46.2094 118.459 46.6381 118.008 47.0923L117.681 55.7632L118.406 57.6835C118.437 57.7921 118.441 57.9015 118.361 57.9865C118.283 58.0989 118.203 58.1565 118.093 58.1603L110.768 58.7997C110.659 58.8036 110.548 58.78 110.49 58.6724C110.432 58.5922 110.428 58.4828 110.479 58.3714L111.437 55.9538Z" fill="black"/>
<path d="M136.996 50.7041C137.889 52.7282 140.22 53.5237 142.324 53.3406C142.706 53.2999 143.061 53.2601 143.442 53.1646C144.693 52.8743 145.906 52.2838 146.917 51.399C147.05 51.2848 147.214 51.279 147.327 51.3847C147.441 51.4903 147.447 51.6546 147.37 51.8217C145.791 54.4801 143.045 55.9188 140.298 56.5628C135.186 57.7552 130.726 55.6365 130.12 50.0673C129.515 44.5256 133.295 40.5023 138.407 39.3098C143.139 38.2129 146.048 39.8651 146.874 44.6867C146.907 44.8499 146.83 44.9896 146.696 45.0765L145.621 45.6896L142.209 47.6995L136.996 50.7041ZM141.121 45.5727C141.102 45.0253 140.973 44.4817 140.791 43.9948C140.249 42.5887 138.992 41.1528 137.293 41.952C137.212 41.9823 137.159 42.0389 137.078 42.0692C136.274 42.5905 135.93 43.7261 135.823 44.6067C135.649 45.9007 135.807 47.2654 136.122 48.4602L141.121 45.5727Z" fill="black"/>
<path d="M149.427 52.6268L149.754 43.1338L148.705 41.3618C148.647 41.2816 148.643 41.1721 148.694 41.0607C148.745 40.9493 148.798 40.8927 148.906 40.8341L150.068 40.3551L155.699 38.3224C155.808 38.2912 155.89 38.2883 155.975 38.3675C156.059 38.4194 156.09 38.5279 156.093 38.6101L156.052 39.7898C156.82 39.0231 157.811 38.3582 158.73 37.9699C159.728 37.524 160.791 37.3225 161.785 37.5344C161.923 37.557 162.01 37.6909 162.014 37.8278L161.833 42.849C161.838 42.9858 161.733 43.1265 161.626 43.185C161.491 43.2446 161.353 43.222 161.268 43.1427C160.472 42.321 159.286 42.1158 158.09 42.4316C157.303 42.6509 156.172 43.2385 155.929 44.1239C155.904 44.2069 155.88 44.29 155.884 44.3995L155.629 52.0266L156.475 54.2715C156.506 54.38 156.51 54.4895 156.431 54.5745C156.353 54.6868 156.272 54.7444 156.163 54.7483L148.701 55.3925C148.592 55.3963 148.48 55.3454 148.423 55.2652C148.365 55.185 148.361 55.0755 148.412 54.9641L149.427 52.6268Z" fill="black"/>
<path d="M164.407 30.2082C164.376 30.0997 164.372 29.9902 164.451 29.8778C164.529 29.7655 164.637 29.7069 164.746 29.7031C165.074 29.6643 165.402 29.6528 165.757 29.613L176.58 28.6596C179.423 28.4233 182.29 28.8712 184.38 30.6343C186.046 32.0285 186.968 34.079 186.966 36.3809C186.945 38.1355 186.376 39.9092 185.361 41.4518C184.266 43.0794 182.618 44.5346 180.484 45.4586C180.484 45.4586 181.984 47.5985 183.131 49.0382C184.852 51.1979 186.574 52.6449 187.251 53.1693C187.391 53.274 187.4 53.5204 187.239 53.6082L181.366 57.3757C181.126 57.5486 180.794 57.4779 180.621 57.2373C179.985 56.3004 178.398 54.0265 176.983 51.9659C175.51 49.825 173.485 46.7992 173.485 46.7992L171.436 46.9803L171.313 50.5471L172.192 52.9279C172.223 53.0364 172.227 53.1459 172.148 53.2583C172.07 53.3706 171.962 53.4292 171.853 53.433L163.927 54.1482C163.818 54.152 163.706 54.1011 163.649 54.0209C163.59 53.9134 163.586 53.8039 163.637 53.6925L164.7 51.1616L165.341 32.6145L164.407 30.2082ZM171.54 42.921L174.465 42.6544C181.817 42.014 182.16 32.219 174.808 32.8594L171.884 33.1259L171.54 42.921Z" fill="black"/>
<path d="M206.112 50.017C206.143 50.1255 206.147 50.235 206.068 50.32C205.99 50.4323 205.909 50.4899 205.8 50.4937L199.268 51.0781C199.076 51.0848 198.935 50.9527 198.955 50.7602L199.002 49.7446C197.35 51.1176 195.456 51.8141 193.406 51.9953C191.165 52.1832 188.893 51.5226 188.051 49.3871C187.209 47.2517 188.163 44.7246 189.8 42.941C192.28 40.1689 196.023 39.0242 199.386 38.7424C199.365 38.1403 199.232 37.4872 198.701 37.2043C196.576 36.018 193.093 38.3319 191.225 39.7947C191.145 39.8523 191.037 39.8835 190.953 39.859C190.843 39.8354 190.786 39.7826 190.756 39.7014L189.421 36.7885C189.39 36.7073 189.388 36.6252 189.411 36.5148C189.436 36.4317 189.515 36.3468 189.596 36.3165C194.47 33.7896 205.82 32.2423 205.566 39.8694L205.266 47.772L206.112 50.017ZM199.238 41.5701C197.903 41.8086 196.694 42.5359 195.773 43.6368C195.037 44.5394 194.423 45.794 194.461 46.8888C194.478 47.3541 194.602 47.7882 194.994 48.0211C195.695 48.4625 196.778 48.0685 197.446 47.5793C198.516 46.802 199.103 45.5757 199.142 44.3138L199.238 41.5701Z" fill="black"/>
<path d="M216.115 49.147C216.146 49.2555 216.15 49.365 216.071 49.45C215.993 49.5623 215.912 49.6199 215.803 49.6238L208.341 50.268C208.232 50.2718 208.12 50.2209 208.063 50.1407C208.005 50.0605 208.001 49.951 208.052 49.8396L209.065 47.4475L209.392 37.9545L208.343 36.1825C208.285 36.1023 208.281 35.9928 208.332 35.8814C208.383 35.7701 208.436 35.7134 208.544 35.6548L209.706 35.1758L215.337 33.1431C215.446 33.1119 215.528 33.1091 215.613 33.1883C215.697 33.2402 215.728 33.3487 215.731 33.4308L215.267 46.8473L216.115 49.147ZM215.556 27.6274C216.402 29.105 215.401 31.0582 213.324 32.0077C211.246 32.9571 208.845 32.5203 207.999 31.0427C207.152 29.565 208.153 27.6118 210.231 26.6624C212.309 25.7129 214.709 26.1497 215.556 27.6274Z" fill="black"/>
<path d="M229.454 45.6668L229.754 36.9695C229.767 36.5579 229.745 35.9284 229.327 35.7512C228.77 35.4966 227.669 36.138 227.159 36.4572C226.623 36.8048 226.089 37.2071 225.583 37.6358L225.299 46.0037L226.145 48.2487C226.176 48.3572 226.18 48.4667 226.101 48.5517C226.023 48.664 225.942 48.7216 225.833 48.7255L218.371 49.3697C218.262 49.3735 218.15 49.3226 218.093 49.2424C218.035 49.1622 218.031 49.0527 218.082 48.9413L219.019 46.7163L219.363 36.9487L218.373 35.2842C218.315 35.204 218.311 35.0945 218.362 34.9832C218.413 34.8718 218.493 34.8142 218.601 34.7556L225.395 32.2712C225.504 32.24 225.613 32.2362 225.67 32.289C225.754 32.3409 225.785 32.4494 225.788 32.5316L225.739 34.2597C226.537 33.5741 227.337 32.9159 228.195 32.3653C229.268 31.6975 230.436 31.3827 231.612 31.2869C234.454 31.0506 236.13 32.7185 236.04 35.6264L235.71 45.0373L236.556 47.2822C236.588 47.3908 236.591 47.5003 236.512 47.5852C236.434 47.6976 236.354 47.7552 236.244 47.759L228.782 48.4032C228.673 48.4071 228.561 48.3561 228.504 48.2759C228.446 48.1957 228.442 48.0863 228.493 47.9749L229.454 45.6668Z" fill="black"/>
</g>
<path d="M234.498 10.5801L235.18 14.7228L239.323 15.4052L235.18 16.0876L234.498 20.2303L233.816 16.0876L229.673 15.4052L233.816 14.7228L234.498 10.5801Z" fill="#1B4E1F"/>
<path d="M244.898 18.9436L245.353 21.7054L248.115 22.1603L245.353 22.6152L244.898 25.377L244.443 22.6152L241.682 22.1603L244.443 21.7054L244.898 18.9436Z" fill="#1B4E1F"/>
<defs>
<clipPath id="clip0">
<rect width="212.088" height="35.3838" fill="white" transform="translate(23.8037 32.7341) rotate(-2)"/>
</clipPath>
</defs>
</svg>
