<svg width="156" height="23" viewBox="0 0 156 23" fill="none" xmlns="http://www.w3.org/2000/svg">
<path d="M2.87819 6.83311C2.86396 6.56148 2.88628 6.37606 2.94517 6.27684C3.0192 6.16081 3.15208 6.09776 3.34382 6.08772C3.55154 6.07683 3.91436 6.27411 4.43229 6.67956C4.95022 7.08501 5.23395 7.45467 5.28349 7.78853C5.37755 8.36039 5.73473 9.36708 6.35502 10.8086C6.97448 12.2341 7.67508 13.6794 8.45683 15.1445C9.29633 14.0431 10.3495 12.586 11.6164 10.7732C12.8824 8.94442 13.8237 7.64538 14.4403 6.87605C15.0569 6.10673 15.509 5.71453 15.7966 5.69946C16.0842 5.68438 16.3961 5.82826 16.7324 6.13107C17.0687 6.43388 17.2444 6.72909 17.2595 7.0167C17.2746 7.3043 17.2598 7.63353 17.2151 8.00437C17.1705 8.37522 17.0842 8.86841 16.9562 9.48395C16.8434 10.0827 16.7348 10.6091 16.6304 11.0632C16.5412 11.5004 16.385 12.1896 16.162 13.1305C15.9389 14.0715 15.7701 14.8253 15.6556 15.3921C15.5403 15.9429 15.4077 16.6228 15.2578 17.4317C15.1071 18.2247 14.9813 18.8802 14.8802 19.3982C14.7944 19.8994 14.7001 20.393 14.5974 20.879C14.4063 21.8183 14.1989 22.2938 13.9752 22.3055C13.7675 22.3164 13.5497 22.1356 13.3219 21.763C13.0941 21.3904 12.9634 20.8845 12.9299 20.2454C12.8956 19.5903 13.0893 18.0901 13.5112 15.7448C13.949 13.3987 14.4418 11.3381 14.9897 9.56298C12.2423 13.392 10.5439 15.684 9.89455 16.4391C9.26115 17.1932 8.72076 17.5821 8.27337 17.6055C7.84196 17.6281 7.42154 17.4018 7.01211 16.9266C6.39336 16.1259 5.51542 14.2012 4.37831 11.1525C4.19461 12.8445 3.96639 14.2984 3.69365 15.5143C3.43606 16.7135 3.2618 17.5157 3.17089 17.921C3.09512 18.3095 3.02399 18.6336 2.95749 18.8935C2.90698 19.1525 2.843 19.4603 2.76555 19.8168C2.68727 20.1574 2.61404 20.4416 2.54588 20.6695C2.49369 20.8965 2.43477 21.1479 2.36911 21.4237C2.30262 21.6836 2.2416 21.8951 2.18606 22.0582C2.1465 22.2205 2.09854 22.3752 2.04216 22.5224C1.92857 22.8007 1.83982 22.9415 1.77591 22.9449C1.58417 22.9549 1.33361 22.7598 1.02424 22.3594C0.714859 21.9591 0.550122 21.5671 0.530025 21.1837C0.509928 20.8002 0.905669 18.5684 1.71725 14.4884C2.5448 10.4075 2.93179 7.8557 2.87819 6.83311Z" fill="black"/>
<path d="M25.0537 14.0104C25.0252 13.4671 24.9106 12.9604 24.7097 12.4903C24.508 12.0042 24.2335 11.6581 23.8862 11.452C22.7996 11.8133 21.8937 12.718 21.1685 14.1659C20.4585 15.597 20.1357 16.9278 20.2001 18.1581C20.2646 19.3884 20.6084 20.1394 21.2315 20.4112C22.3702 20.1272 23.3038 19.2932 24.0324 17.9092C24.7761 16.5083 25.1165 15.2087 25.0537 14.0104ZM18.7617 14.5564C19.2556 13.2808 19.929 12.2201 20.7819 11.3743C21.6499 10.5117 22.5553 10.0557 23.498 10.0063C24.4567 9.95605 25.277 10.3216 25.9588 11.103C26.6398 11.8684 27.0108 12.8343 27.072 14.0007C27.1323 15.1511 26.9146 16.3482 26.419 17.5918C25.9226 18.8195 25.2 19.8587 24.2512 20.7095C23.3176 21.5436 22.2995 21.9894 21.197 22.0472C20.3822 22.0899 19.6834 21.75 19.1008 21.0275C18.5182 20.305 18.1967 19.3686 18.1365 18.2182C18.0753 17.0518 18.2837 15.8312 18.7617 14.5564Z" fill="black"/>
<path d="M29.3345 12.6324L29.1684 10.8387C29.129 10.0877 29.2851 9.70301 29.6366 9.68459C29.9402 9.66868 30.2383 9.85333 30.5308 10.2385C30.8385 10.6069 31.0066 11.0628 31.0351 11.606C31.0627 12.1333 31.0677 12.5336 31.0499 12.8069C32.3295 10.6249 33.5924 9.5013 34.8387 9.43599C35.6216 9.39496 36.0232 9.56618 36.0433 9.94965C36.0533 10.1414 35.9746 10.3218 35.8072 10.4907C35.6399 10.6597 35.3699 10.8581 34.9973 11.086C34.1697 11.4978 33.4804 12.1027 32.9294 12.9007C32.3936 13.6818 31.967 14.5613 31.6498 15.5393C31.3325 16.5172 31.0792 17.3396 30.8898 18.0064C30.7165 18.6724 30.5835 19.1921 30.4909 19.5654C30.3983 19.9388 30.2893 20.305 30.1639 20.664C29.9418 21.3166 29.6629 21.6516 29.3274 21.6692C29.0558 21.6834 28.8241 21.5434 28.6325 21.249C28.4559 20.9378 28.3601 20.6384 28.3451 20.3508C28.3291 20.0472 28.434 19.4489 28.6595 18.5559C29.2091 16.5083 29.4341 14.5338 29.3345 12.6324Z" fill="black"/>
<path d="M37.848 5.84157C37.8313 5.52201 37.9432 5.21172 38.1838 4.91072C38.4244 4.60972 38.6725 4.45252 38.9281 4.43912C39.1997 4.42488 39.5365 4.73569 39.9383 5.37153C40.3393 5.99139 40.5511 6.51703 40.5737 6.94844C40.5821 7.10822 40.5177 7.25579 40.3806 7.39115C40.2435 7.52651 40.0951 7.59837 39.9353 7.60675C39.5518 7.62685 39.1083 7.41777 38.6046 6.97953C38.117 6.54045 37.8648 6.16113 37.848 5.84157ZM37.9066 9.25118C38.2101 9.23527 38.5074 9.40394 38.7983 9.7572C39.0892 10.1105 39.2438 10.4629 39.2622 10.8144C39.2807 11.1659 39.1042 12.2326 38.733 14.0145C38.3609 15.7803 37.8803 17.7682 37.2911 19.9781C37.0614 20.7912 36.7388 21.2087 36.3233 21.2305C36.0996 21.2422 35.9033 21.1643 35.7343 20.997C35.5645 20.8136 35.4737 20.6101 35.462 20.3864C35.4494 20.1467 35.4861 19.7763 35.572 19.2751C35.673 18.7571 35.8136 18.0768 35.9937 17.2342C36.189 16.3748 36.3368 15.6781 36.437 15.1442C36.5531 14.6094 36.666 14.0106 36.7754 13.348C36.8841 12.6694 36.9678 12.1283 37.0268 11.7246C37.1009 11.3042 37.183 10.8833 37.2731 10.462C37.4557 9.66734 37.6669 9.26374 37.9066 9.25118Z" fill="black"/>
<path d="M43.1322 18.4944C43.1481 18.7979 43.3318 18.9405 43.6834 18.9221C44.2905 18.8903 45.0167 18.684 45.862 18.3032C46.7223 17.9057 47.2005 17.7044 47.2963 17.6993C47.5839 17.6843 47.7357 17.8285 47.7516 18.1321C47.7759 18.5955 47.3246 19.1559 46.3977 19.8133C45.4868 20.4698 44.6399 20.8186 43.857 20.8597C43.0901 20.8999 42.4401 20.7256 41.907 20.337C41.3731 19.9324 41.0944 19.5064 41.071 19.059C41.0475 18.6116 41.1136 18.0394 41.2694 17.3423C41.4243 16.6292 41.6477 15.6962 41.9398 14.5433C42.247 13.3737 42.4848 12.4079 42.6532 11.646C41.9114 11.8612 41.4127 11.9754 41.157 11.9888C40.9014 12.0022 40.639 11.8878 40.37 11.6455C40.1161 11.3865 39.9829 11.1371 39.9703 10.8974C39.9502 10.514 40.9695 10.092 43.0282 9.63165C43.2463 8.2904 43.3286 7.10847 43.275 6.08588C43.2499 5.60653 43.3971 5.35849 43.7167 5.34174C43.9883 5.32751 44.333 5.48568 44.7509 5.81626C45.168 6.13087 45.3878 6.50388 45.4104 6.93528C45.433 7.36669 45.337 8.13277 45.1223 9.23351C46.0288 9.10589 46.7538 9.02785 47.297 8.99937C48.2557 8.94913 48.7459 9.13173 48.7677 9.54716C48.7802 9.78683 48.5271 10.0004 48.0082 10.1878C47.5053 10.3744 46.4317 10.679 44.7876 11.1016C44.5182 12.3814 44.1706 13.8496 43.7447 15.5062C43.318 17.1468 43.1138 18.1428 43.1322 18.4944Z" fill="black"/>
<path d="M49.1015 9.62579C49.0856 9.32221 49.425 9.07211 50.1196 8.87548C50.8135 8.66288 51.7675 8.52475 52.9819 8.46111C54.2122 8.39664 55.2272 8.50366 56.0269 8.78219C56.3859 8.90757 56.721 9.18642 57.032 9.61873C57.3582 10.0342 57.5288 10.3858 57.5439 10.6734C57.5757 11.2806 57.2367 11.9953 56.5267 12.8176C55.8328 13.639 55.0623 14.3763 54.2153 15.0296C53.3684 15.6828 52.584 16.3087 51.8624 16.9073C51.1567 17.505 50.8089 17.8998 50.8189 18.0915C50.8332 18.3631 51.048 18.4881 51.4634 18.4663C52.3742 18.4186 53.4893 18.296 54.8088 18.0987C56.1283 17.9014 56.9158 17.796 57.1715 17.7826C57.7946 17.75 58.1158 17.9174 58.1351 18.2849C58.1619 18.7962 57.3856 19.2695 55.8062 19.7047C54.2268 20.14 52.6941 20.3965 51.2082 20.4744C50.5211 20.5104 49.8766 20.2878 49.2746 19.8067C48.6717 19.3096 48.359 18.8453 48.3364 18.4139C48.3138 17.9825 48.6831 17.3863 49.4443 16.6254C50.2207 15.8477 51.071 15.1062 51.9954 14.4009C54.4741 12.4765 55.7017 11.2906 55.6782 10.8433C55.6623 10.5397 54.8395 10.4306 53.2097 10.516C52.8103 10.5369 52.3175 10.6108 51.7313 10.7377C51.1443 10.8486 50.715 10.9111 50.4434 10.9253C50.1877 10.9387 49.8993 10.7856 49.5781 10.466C49.273 10.1455 49.1141 9.86546 49.1015 9.62579Z" fill="black"/>
<path d="M80.6593 17.1044C81.4422 17.0634 81.9796 17.0753 82.2714 17.1401C82.5632 17.2049 82.7149 17.3492 82.7266 17.5729C82.766 18.3239 82.0107 18.7399 80.4609 18.8212C78.927 18.9016 77.3726 18.2861 75.7978 16.9747C73.3234 18.6745 71.471 19.5567 70.2407 19.6212C69.6176 19.6538 68.9869 19.3905 68.3488 18.8311C67.7098 18.2557 67.3731 17.6405 67.3388 16.9854C67.3036 16.3143 68.6322 14.7627 71.3246 12.3304C71.4003 12.2464 71.4613 12.1871 71.5076 12.1526C71.5538 12.1181 71.6073 12.0673 71.6678 12C71.7444 11.9319 71.8133 11.8722 71.8747 11.8209C71.2258 10.445 70.87 9.15788 70.8072 7.95952C70.7435 6.74519 71.1277 5.66761 71.9596 4.72678C72.7915 3.78595 73.8785 3.28037 75.2207 3.21003C76.2433 3.15644 76.9866 3.42991 77.4507 4.03044C77.9299 4.61416 78.1891 5.28151 78.2285 6.03248C78.303 7.45453 76.9444 9.50444 74.1528 12.1822C74.6151 13.0552 75.1535 13.8521 75.7681 14.573C76.3998 14.0912 77.2228 13.4393 78.2371 12.6171C80.2204 11.0231 81.3159 10.2206 81.5236 10.2098C82.0189 10.1838 82.2804 10.4345 82.3081 10.9617C82.324 11.2653 81.8289 11.9081 80.823 12.8901C79.817 13.8721 78.6205 14.8881 77.2336 15.9381C78.351 16.7768 79.4929 17.1656 80.6593 17.1044ZM74.8368 5.05665C74.2456 5.08763 73.7649 5.39321 73.3948 5.97338C73.0406 6.55271 72.884 7.23383 72.9251 8.01676C72.9653 8.78371 73.127 9.57633 73.4102 10.3946C75.2539 8.58365 76.1524 7.23078 76.1055 6.33601C76.0854 5.95253 75.9648 5.63841 75.7437 5.39365C75.5385 5.14805 75.2362 5.03572 74.8368 5.05665ZM69.7179 16.5243C69.5404 16.8059 69.4563 17.0347 69.4655 17.2104C69.4739 17.3702 69.5449 17.5027 69.6786 17.6078C69.8123 17.713 69.975 17.7605 70.1667 17.7505C70.9976 17.7069 72.3937 16.9849 74.3551 15.5843C73.8279 15.0031 73.3025 14.3016 72.7788 13.4799C70.9149 15.2118 69.8946 16.2266 69.7179 16.5243Z" fill="black"/>
<path d="M94.5698 18.1779C94.3301 18.1904 94.0493 18.0289 93.7273 17.6933C93.4053 17.3577 93.235 17.0141 93.2166 16.6626C93.1974 16.2951 93.5459 14.5385 94.2622 11.3927C94.9786 8.24688 95.3584 5.86374 95.4016 4.24325C95.1872 4.12632 94.993 3.93622 94.819 3.67297C94.645 3.40971 94.5525 3.17423 94.5416 2.96651C94.5224 2.59902 95.046 2.19506 96.1124 1.75465C97.1779 1.29825 98.3658 1.03572 99.676 0.96706C101.002 0.897558 102.161 1.15725 103.154 1.74613C104.161 2.31819 104.695 3.17944 104.755 4.32986C104.796 5.11278 104.611 5.8595 104.199 6.57C103.803 7.26369 103.297 7.84298 102.68 8.30789C102.08 8.77195 101.477 9.18808 100.871 9.55628C100.266 9.92448 99.745 10.2321 99.3094 10.4793C98.8888 10.7096 98.6811 10.8727 98.6861 10.9686C98.7045 11.3201 99 11.7612 99.5726 12.292C100.161 12.8219 100.573 13.1849 100.807 13.3809C101.042 13.5769 101.352 13.841 101.738 14.1732C102.123 14.4895 102.483 14.7751 102.816 15.03C103.166 15.284 103.441 15.4939 103.642 15.6596C103.859 15.8245 104.077 15.9973 104.294 16.1782C104.713 16.5248 104.928 16.8099 104.94 17.0336C104.96 17.4171 104.707 17.6226 104.179 17.6502C103.221 17.7005 101.811 16.9412 99.9503 15.3724C98.0888 13.7877 96.9278 12.4226 96.4672 11.2771C95.8469 13.8091 95.4913 15.2777 95.4003 15.683C95.3086 16.0723 95.2017 16.4785 95.0797 16.9015C94.8676 17.7457 94.6976 18.1712 94.5698 18.1779ZM97.4967 4.78234C97.5512 5.82092 97.3056 7.55615 96.7602 9.98803C97.0209 9.76608 97.5243 9.43528 98.2703 8.99563C99.0155 8.54001 99.6828 8.12852 100.272 7.76116C100.877 7.37698 101.42 6.88389 101.901 6.28189C102.382 5.67988 102.607 5.0673 102.574 4.44416C102.522 3.45352 101.633 3.00342 99.9077 3.09385C99.1247 3.13488 98.2244 3.38234 97.2068 3.83622C97.385 4.17937 97.4817 4.49474 97.4967 4.78234Z" fill="black"/>
<path d="M113.023 9.40008C112.995 8.85682 112.88 8.35013 112.679 7.88C112.478 7.39389 112.203 7.04778 111.856 6.84167C110.769 7.20303 109.863 8.10768 109.138 9.55562C108.428 10.9867 108.105 12.3175 108.17 13.5478C108.234 14.7781 108.578 15.5291 109.201 15.8009C110.34 15.5169 111.273 14.6829 112.002 13.2989C112.746 11.898 113.086 10.5984 113.023 9.40008ZM106.731 9.94612C107.225 8.67053 107.899 7.60983 108.751 6.76403C109.62 5.90142 110.525 5.44541 111.468 5.39601C112.426 5.34576 113.247 5.71134 113.928 6.49272C114.609 7.25813 114.98 8.22403 115.042 9.39043C115.102 10.5409 114.884 11.7379 114.389 12.9815C113.892 14.2092 113.17 15.2484 112.221 16.0993C111.287 16.9333 110.269 17.3792 109.167 17.4369C108.352 17.4796 107.653 17.1397 107.07 16.4172C106.488 15.6947 106.166 14.7583 106.106 13.6079C106.045 12.4415 106.253 11.2209 106.731 9.94612Z" fill="black"/>
<path d="M131.22 4.36085C131.699 4.33573 132.14 4.64908 132.543 5.3009C132.96 5.9359 133.191 6.67682 133.236 7.52366C133.279 8.35452 133.185 9.44899 132.951 10.8071C132.734 12.1643 132.407 13.4151 131.97 14.5595C131.534 15.704 131.076 16.2887 130.596 16.3139C130.261 16.3314 130.082 16.1245 130.059 15.6931C130.036 15.2457 130.251 14.153 130.704 12.4149C131.173 10.6599 131.381 9.27913 131.328 8.27252C131.275 7.24992 131.088 6.74699 130.769 6.76374C130.369 6.78468 129.924 7.16048 129.434 7.89115C128.959 8.62098 128.453 9.49671 127.913 10.5183C127.374 11.54 127.082 12.092 127.039 12.1744C126.994 12.2408 126.935 12.34 126.862 12.472C126.805 12.6032 126.732 12.7432 126.644 12.892C126.571 13.04 126.37 13.4831 126.04 14.2214C125.727 14.9589 125.445 15.5424 125.195 15.9721C124.944 16.3858 124.715 16.598 124.507 16.6089C124.316 16.619 124.093 16.5025 123.84 16.2594C123.587 16.0163 123.455 15.7829 123.443 15.5592C123.431 15.3355 123.551 14.8646 123.801 14.1465C124.523 12.0258 124.838 10.0707 124.744 8.28114C124.726 7.9456 124.64 7.66975 124.484 7.45359C124.328 7.22146 124.162 7.11 123.986 7.11921C123.81 7.12842 123.631 7.21794 123.447 7.38777C123.263 7.54162 123.038 7.82581 122.771 8.24033C122.503 8.63888 122.267 9.01977 122.062 9.38301C121.857 9.74625 121.542 10.3155 121.118 11.0908C120.709 11.8492 120.394 12.4184 120.174 12.7985C119.969 13.1617 119.727 13.591 119.448 14.0862C119.169 14.5655 118.948 14.9376 118.786 15.2024C118.639 15.4665 118.47 15.7557 118.279 16.0702C117.878 16.684 117.574 16.9963 117.366 17.0072C117.175 17.0173 116.91 16.8549 116.572 16.5201C116.233 16.1694 116.059 15.9061 116.05 15.7304C116.04 15.5386 116.06 15.3053 116.109 15.0303C116.159 14.7553 116.209 14.4883 116.259 14.2293C116.326 13.9695 116.418 13.5881 116.536 13.0853C116.669 12.5656 116.814 11.9652 116.97 11.2841C117.142 10.5861 117.245 9.64347 117.279 8.45607C117.328 7.25185 117.362 6.37686 117.381 5.83109C117.4 5.26935 117.521 4.98262 117.745 4.97089C118.096 4.95247 118.45 5.11821 118.804 5.46812C119.175 5.8172 119.37 6.17548 119.39 6.54298C119.463 7.94905 119.057 10.2935 118.172 13.5763C119.786 10.1272 120.808 8.07885 121.239 7.43143C121.669 6.784 122.042 6.25975 122.358 5.85869C122.945 5.13898 123.558 4.76237 124.197 4.72888C124.581 4.70878 125.054 5.02046 125.616 5.6639C126.194 6.29053 126.5 6.93939 126.535 7.61047C126.57 8.28155 126.518 9.11743 126.378 10.1181C128.072 6.36033 129.686 4.44124 131.22 4.36085Z" fill="black"/>
<path d="M140.444 3.8774C141.163 3.83971 141.846 4.17246 142.491 4.87563C143.136 5.56282 143.474 6.20201 143.505 6.7932C143.535 7.36841 143.367 7.97007 142.999 8.59817C143.203 8.82779 143.31 9.03049 143.319 9.20624C143.343 9.65363 143.279 10.426 143.128 11.5234C142.993 12.62 142.911 13.3373 142.881 13.6753C142.866 14.0125 142.848 14.2858 142.827 14.4952C142.805 14.6886 142.776 14.8825 142.738 15.0767C142.695 15.4795 142.561 15.6868 142.338 15.6985C142.05 15.7136 141.797 15.4785 141.58 14.9932C141.377 14.4911 141.239 13.8415 141.165 13.0442C139.838 14.9243 138.567 15.8961 137.353 15.9598C136.618 15.9983 135.874 15.7248 135.123 15.1394C134.386 14.5371 134 13.9004 133.965 13.2293C133.915 12.2706 134.204 11.0698 134.834 9.62692C135.462 8.16803 136.307 6.85803 137.367 5.69693C138.428 4.53582 139.454 3.92931 140.444 3.8774ZM141.768 8.03783C141.69 6.55187 141.356 5.82438 140.764 5.85536C140.141 5.88802 139.438 6.37351 138.654 7.31182C137.869 8.23416 137.218 9.26963 136.702 10.4182C136.185 11.5669 135.944 12.4687 135.978 13.1238C135.992 13.3954 136.116 13.6133 136.349 13.7773C136.581 13.9254 136.849 13.9914 137.152 13.9755C137.903 13.9362 138.724 13.3885 139.614 12.3325C140.503 11.2605 141.093 9.98782 141.384 8.51456C141.42 8.27237 141.548 8.12145 141.769 8.0618L141.768 8.03783Z" fill="black"/>
<path d="M147.338 11.2547C148.735 8.56991 149.88 6.57125 150.773 5.25874C151.681 3.92941 152.438 3.24884 153.045 3.21702C153.668 3.18436 154.269 3.48135 154.846 4.10798C155.44 4.73377 155.756 5.41416 155.794 6.14916C155.855 7.29958 155.665 8.71947 155.225 10.4088C154.427 13.5269 153.644 15.106 152.877 15.1462C152.526 15.1646 152.337 14.9341 152.312 14.4548C152.295 14.1192 152.427 13.4314 152.709 12.3912C153.006 11.3342 153.272 10.3028 153.508 9.29713C153.759 8.2746 153.871 7.51568 153.845 7.02036C153.818 6.50906 153.719 6.13776 153.547 5.90646C153.39 5.67433 153.232 5.56245 153.072 5.57082C152.929 5.57836 152.779 5.63425 152.625 5.73849C152.47 5.84273 152.294 6.01214 152.098 6.24672C151.918 6.48046 151.746 6.71379 151.582 6.94669C151.417 7.16362 151.21 7.47892 150.959 7.89261C150.724 8.30546 150.527 8.66029 150.366 8.95711C150.204 9.23795 149.97 9.6508 149.662 10.1957C149.354 10.7405 149.119 11.1534 148.958 11.4342C148.796 11.715 148.584 12.0947 148.32 12.5731C148.057 13.0516 147.844 13.4232 147.682 13.6881C147.535 13.9521 147.366 14.2413 147.174 14.5558C146.806 15.1679 146.502 15.4803 146.262 15.4928C146.039 15.5046 145.766 15.3426 145.444 15.007C145.121 14.6554 144.952 14.3438 144.938 14.0722C144.934 13.9923 144.979 13.7737 145.072 13.4163C145.327 12.4736 145.603 11.3136 145.899 9.93623C146.194 8.54286 146.313 6.97453 146.253 5.23124C146.24 4.06233 146.377 3.47034 146.665 3.45527C147.016 3.43684 147.378 3.60217 147.748 3.95124C148.119 4.30032 148.316 4.69855 148.34 5.14593C148.362 5.57734 148.271 6.43129 148.065 7.7078C147.875 8.96749 147.633 10.1498 147.338 11.2547Z" fill="black"/>
</svg>
