<?xml version="1.0" encoding="UTF-8"?>
<!-- Generated by Pixelmator Pro 2.4.7 -->
<svg width="892" height="210" viewBox="0 0 892 210" xmlns="http://www.w3.org/2000/svg" xmlns:xlink="http://www.w3.org/1999/xlink">
    <g id="Group">
        <path id="Ellipse" fill="#000000" fill-rule="evenodd" stroke="none" d="M 892 105 C 892 47.010101 844.989868 0 787 0 C 729.010132 0 682 47.010101 682 105 C 682 162.989899 729.010132 210 787 210 C 844.989868 210 892 162.989899 892 105 Z"/>
        <path id="Rectangle" fill="#ffffff" fill-rule="evenodd" stroke="none" d="M 786.781128 128.143066 L 797.789917 132.91864 L 833.735962 50.054443 L 822.727173 45.278885 Z"/>
        <path id="Rectangle-copy" fill="#ffffff" fill-rule="evenodd" stroke="none" d="M 787 168 C 787 168 787 180 787 180 C 787 180 803.073547 180.189178 818 174 C 834.394165 167.20224 841 155 841 155 L 831.945007 146.673767 C 831.945007 146.673767 823.482239 158.219437 812 163 C 800.894348 167.623764 787 168 787 168 Z"/>
        <path id="e" fill="#000000" fill-rule="evenodd" stroke="none" d="M 165.335754 174.294708 C 181.768036 164.705597 190.227051 153.619583 192.026154 132.985321 L 170.962845 133.735443 C 169.925415 146.653595 162.164093 152.884796 154.165329 156.907272 C 144.711884 161.661285 127.102142 161.596725 121.245483 150.86232 L 189.483093 111.485199 L 185.094696 103.444626 C 169.848846 79.60643 140.400009 68.594177 114.045349 83.375763 C 90.13092 96.788696 83.038834 131.078964 96.647247 154.145172 C 114.19223 183.88385 146.610626 185.221802 165.335754 174.294708 Z M 111.643524 134.398712 C 108.478516 126.086609 110.004028 107.165405 124.12735 99.129471 C 138.640915 90.871536 155.67482 97.058273 161.666809 105.07254 Z"/>
        <path id="e-copy" fill="#000000" fill-rule="evenodd" stroke="none" d="M 333.335754 174.294708 C 349.768036 164.705597 358.227051 153.619583 360.026154 132.985321 L 338.96286 133.735443 C 337.925415 146.653595 330.164093 152.884796 322.165344 156.907272 C 312.711884 161.661285 295.102142 161.596725 289.245483 150.86232 L 357.483093 111.485199 L 353.094696 103.444626 C 337.848846 79.60643 308.399994 68.594177 282.045349 83.375763 C 258.13092 96.788696 251.038818 131.078964 264.647247 154.145172 C 282.19223 183.88385 314.610626 185.221802 333.335754 174.294708 Z M 279.643524 134.398712 C 276.478516 126.086609 278.004028 107.165405 292.12735 99.129471 C 306.6409 90.871536 323.674805 97.058273 329.666809 105.07254 Z"/>
        <path id="Path" fill="#000000" fill-rule="evenodd" stroke="none" d="M 213 180 L 235 180 L 235 33 L 213 36 Z"/>
        <path id="Path-copy-3" fill="#000000" fill-rule="evenodd" stroke="none" d="M 591 180 L 591 98 L 581 98 L 581 76 L 591 76 L 591 36 L 613 33 L 613 76 L 644 76 L 644 98 L 613 98 L 613 180 L 591 180 Z"/>
        <path id="Path-copy" fill="#000000" fill-rule="evenodd" stroke="none" d="M 383 180 L 383 36 L 405 33 L 405 112.576172 L 430 77 L 455 76 L 433 108 L 476 179 L 450 179 L 418 127 L 405 145.572266 L 405 180 L 383 180 Z"/>
        <path id="Path-copy-2" fill="#000000" fill-rule="evenodd" stroke="none" d="M 484 180 L 484 36 L 506 33 L 506 112.576172 L 531 77 L 556 76 L 534 108 L 577 179 L 551 179 L 519 127 L 506 145.572266 L 506 180 L 484 180 Z"/>
        <path id="s" fill="#000000" fill-rule="evenodd" stroke="none" d="M 35.893341 179.971466 C 59.891541 179.677551 71.839432 163.359528 71.871109 149.359558 C 71.96492 107.891876 26.93602 122.427521 26.831116 102.179871 C 26.810272 98.156723 28.844589 94.046677 36 94 C 42.510056 93.957535 43.719002 95.326401 48 100 L 60 89 C 55.845245 81.267212 46.52623 77.079758 36 77 C 14.614479 76.837952 7.320038 91.432999 7.391113 101.407074 C 7.667259 140.158478 49.81778 124.32341 49.81778 148.223068 C 49.81778 153.336472 45.320007 159.813568 36.324448 159.813568 C 28.324448 159.813568 22.147026 155.167053 21.879997 146.291534 L 1 146 C 0.962379 164.183777 16.187958 180.212799 35.893341 179.971466 Z"/>
        <path id="s-copy" fill="#ffffff" fill-rule="evenodd" stroke="none" d="M 771.724548 77.451752 C 781.85144 77.327728 786.893311 70.441757 786.906677 64.533966 C 786.946228 47.035172 767.944641 53.169006 767.900391 44.624786 C 767.891602 42.927063 768.750061 41.192688 771.769531 41.172989 C 774.516724 41.155075 775.026855 41.732712 776.833374 43.70491 L 781.897217 39.063065 C 780.143982 35.799927 776.211487 34.032883 771.769531 33.999222 C 762.745178 33.930847 759.666992 40.089752 759.69696 44.298676 C 759.813538 60.65123 777.600464 53.969055 777.600464 64.054367 C 777.600464 66.212158 775.702454 68.945404 771.906433 68.945404 C 768.530579 68.945404 765.923767 66.98465 765.811096 63.239288 L 757 63.116272 C 756.984131 70.789566 763.409119 77.553589 771.724548 77.451752 Z"/>
        <path id="path1" fill="#ffffff" fill-rule="evenodd" stroke="none" d="M 860 99 C 860 93.477158 855.522827 89 850 89 C 844.477173 89 840 93.477158 840 99 C 840 104.52285 844.477173 109 850 109 C 855.522827 109 860 104.52285 860 99 Z"/>
    </g>
</svg>
